<?xml version="1.0" encoding="UTF-8"?>
<!-- Generator: Adobe Illustrator 25.2.1, SVG Export Plug-In . SVG Version: 6.00 Build 0)  -->
<svg xmlns="http://www.w3.org/2000/svg" xmlns:xlink="http://www.w3.org/1999/xlink" version="1.1" id="Calque_1" x="0px" y="0px" viewBox="0 0 2600 201" style="enable-background:new 0 0 2600 201;" xml:space="preserve">
<style type="text/css">
	.st0{fill:#FFFFFF;}
	.st1{fill:#EFEEEE;}
	.st2{clip-path:url(#SVGID_2_);}
	.st3{fill:#D1D1D1;}
	.st4{fill:#B7163A;}
	.st5{fill:#F7AF88;}
	.st6{fill:#E01D40;}
	.st7{fill:#35201E;}
	.st8{fill:#C4A087;}
	.st9{fill:#E5BB9D;}
	.st10{fill:#020203;}
	.st11{fill:#020203;stroke:#020203;stroke-width:0.25;stroke-miterlimit:10;}
	.st12{fill:#FCF9F1;}
	.st13{fill:#E8E9EB;}
	.st14{fill:#753D37;}
	.st15{fill-rule:evenodd;clip-rule:evenodd;fill:#9B5553;}
	.st16{fill-rule:evenodd;clip-rule:evenodd;fill:#C1776E;}
	.st17{fill-rule:evenodd;clip-rule:evenodd;fill:#B7163A;}
	.st18{fill-rule:evenodd;clip-rule:evenodd;fill:#E01D40;}
	.st19{fill-rule:evenodd;clip-rule:evenodd;fill:#FFFFFF;}
	.st20{fill-rule:evenodd;clip-rule:evenodd;fill:#F5A55E;}
	.st21{fill-rule:evenodd;clip-rule:evenodd;fill:#49742D;}
	.st22{fill-rule:evenodd;clip-rule:evenodd;fill:#355323;}
	.st23{fill-rule:evenodd;clip-rule:evenodd;fill:#7EA834;}
	.st24{fill-rule:evenodd;clip-rule:evenodd;fill:#D95F77;}
	.st25{fill-rule:evenodd;clip-rule:evenodd;fill:#FCE4E4;}
	.st26{fill:#EC7261;}
	.st27{fill:#F9D0D1;}
	.st28{fill:#FDEAEE;}
	.st29{opacity:0.22;fill:#D96077;enable-background:new    ;}
	.st30{fill:#D76156;}
	.st31{opacity:0.59;fill:#0F354A;enable-background:new    ;}
	.st32{fill:#0F354A;}
	.st33{fill:#F29478;}
	.st34{fill:#E2A484;}
	.st35{fill:#FEF5F5;}
	.st36{fill:#201A3E;}
</style>
<rect class="st0" width="2600" height="140.6"></rect>
<g>
	<rect y="134.6" class="st1" width="2600" height="67.4"></rect>
	<g>
		<g>
			<defs>
				<rect id="SVGID_1_" x="826.7" y="12.7" width="946.5" height="174.5"></rect>
			</defs>
			<clipPath id="SVGID_2_">
				<use xlink:href="#SVGID_1_" style="overflow:visible;"></use>
			</clipPath>
			<g class="st2">
				<path class="st3" d="M1300.1,187c80.1,0,145.1-1.7,145.1-3.8c0-2.1-65-3.8-145.1-3.8c-80.1,0-145.1,1.7-145.1,3.8      C1155,185.3,1220,187,1300.1,187z"></path>
				<path class="st0" d="M1473.9,62.9c-0.9,1.5-2.1,2.8-3.5,3.9h-56.1c-0.3-0.2-0.6-0.4-1-0.6c-1.7-1.3-2.9-3.4-2.6-5.4      c0.4-2.4,2.8-4,5.2-4.6c2.8-0.6,5.8-0.2,8.3,1.3c-3-2.3-5.1-5.8-5.3-9.6c-0.2-4.2,2.2-8.5,6.1-10.2c4.6-2.1,10.3-0.2,14,3.3      c3.4,3.3,5.4,7.7,7,12.2c-0.2-0.9-0.1-1.9,0.2-2.8c0.3-0.9,0.8-1.7,1.5-2.3c1.6-1.5,4-2.1,6.2-1.8c1.4,0.1,2.7,0.7,3.7,1.6      c2.4,2.4,1.7,6.4,0.7,9.7c1.2-1.6,2.7-2.8,4.5-3.6c1.8-0.8,3.7-1.2,5.7-1.1c1.9,0.1,3.8,0.8,5.1,2.2      C1475.5,57,1475.3,60.4,1473.9,62.9z"></path>
				<path class="st0" d="M1717.5,32.3c-0.4,0.6-0.8,1.1-1.4,1.5h-22c-0.1-0.1-0.3-0.2-0.4-0.3c-0.3-0.2-0.6-0.6-0.8-0.9      c-0.2-0.4-0.3-0.8-0.2-1.2c0.2-0.9,1.1-1.6,2-1.8c1.1-0.2,2.3-0.1,3.2,0.5c-0.6-0.4-1.1-1-1.5-1.7c-0.4-0.6-0.6-1.4-0.6-2.1      c0-0.8,0.2-1.6,0.6-2.4c0.4-0.7,1-1.3,1.8-1.7c1.8-0.8,4-0.1,5.5,1.3c1.3,1.3,2.1,3,2.7,4.8c-0.1-0.4-0.1-0.7,0.1-1.1      c0.1-0.3,0.3-0.7,0.6-0.9c0.3-0.3,0.7-0.5,1.1-0.6c0.4-0.1,0.9-0.2,1.3-0.1c0.5,0.1,1,0.3,1.5,0.6c1,0.9,0.6,2.5,0.3,3.8      c0.5-0.6,1.1-1.1,1.8-1.4c0.7-0.3,1.5-0.5,2.2-0.4c0.7,0,1.5,0.3,2,0.9C1718.1,30,1718,31.3,1717.5,32.3z"></path>
				<path class="st0" d="M1726.5,63.1c-1.4-2-0.6-5.1,1.5-6.4c2.2-1.4,5-0.7,6.9,1c-1.3-2.7-0.5-6.4,3-7c2.7-0.4,5.4,2.1,5.2,4.8      c-0.5-3.1-0.3-6.5,1.2-9.3c1.4-2.9,4.1-5.2,7.2-5.8c4.2-0.8,8.8,1.7,10.7,5.6c1.8,3.9,1,8.8-1.7,12.2c1.9-2.5,4.7-4.7,7.8-4.7      s6.1,3.5,4.7,6.3c-0.9,1.7-2.9,2.4-4.7,2.9L1726.5,63.1z"></path>
				<path class="st3" d="M1679.6,187.1c48.3,0,87.5-2.3,87.5-5.2c0-2.9-39.2-5.2-87.5-5.2c-48.3,0-87.5,2.3-87.5,5.2      C1592.2,184.7,1631.3,187.1,1679.6,187.1z"></path>
				<path class="st4" d="M1696.1,90c-0.2,1.5,0.3,2.8,1.1,3c0.8,0.1,1.7-1,1.9-2.5c0.2-1.5-0.3-2.8-1.1-2.9      C1697.1,87.4,1696.3,88.5,1696.1,90z"></path>
				<path class="st5" d="M1695.6,87.5l1.7-0.2c1.4,0.7,3.9,1.6,5.5,0.1c2.3-2.1,7.7-0.9,7.2-0.3c-0.7,0.8-1.4,0.6-2.3,0.7      c-0.2,0-0.4,0.1-0.5,0.2c0,0.1,0,0.1,0,0.2c0.2,0.1,0.4,0.1,0.7,0.1c-0.5,0.9-0.6,1.9-0.9,2.9c-0.1,0.6,0,0.7-0.2,1.2      c-0.9,0.1-1.8,0-2.7-0.2c-4.3-0.8-5.3-0.4-8.1-0.8C1693.8,91.1,1694.8,88.8,1695.6,87.5z"></path>
				<path class="st5" d="M1702.7,88.9c1.2-0.5,2.4-0.8,3.6-0.9c0.6-0.1,1.2-0.1,1.8-0.1c-0.2,0-0.3,0-0.5,0.1      c-0.2,0-0.4,0.1-0.5,0.2c0,0.1,0,0.1,0,0.2c0.2,0.1,0.4,0.1,0.7,0.1c-0.5,0.9-0.6,1.9-0.9,2.9c-0.1,0.6,0,0.7-0.2,1.2      c-0.9,0.1-1.8,0-2.7-0.2c-1.3-0.2-2.5-0.4-3.8-0.5C1700.6,90.5,1701.5,89.5,1702.7,88.9z"></path>
				<path class="st5" d="M1695.6,87.5l1.7-0.2c0.3,0.1,0.5,0.3,0.9,0.4c-0.1,0.4-0.1,0.8-0.1,1c-0.1,0.6-0.1,1.2,0.1,1.8      c0.1,0.4,0.3,0.8,0.4,1.2c-0.9,0-1.8-0.1-2.7-0.3C1693.8,91.1,1694.8,88.8,1695.6,87.5z"></path>
				<path class="st5" d="M1709.6,88.3c0,1.2-3.8,1.3-4.2,0.6C1704.9,88.1,1709.6,87.2,1709.6,88.3z"></path>
				<path class="st5" d="M1709.7,89.4c0,1.3-4.2,1.5-4.7,0.6C1704.5,89.1,1709.7,88.1,1709.7,89.4z"></path>
				<path class="st5" d="M1709.5,90.3c0,1.3-4.2,1.5-4.7,0.6C1704.3,90.1,1709.5,89.1,1709.5,90.3z"></path>
				<path class="st5" d="M1709.3,91.5c0,1.1-3.7,1.3-4.1,0.5C1704.7,91.3,1709.2,90.4,1709.3,91.5z"></path>
				<path class="st6" d="M1660.5,70c0.2-2.7,3.1-7,3.1-7s5.3-4.2,8.2,2.4c2.8,6.6,5.4,14.1,9.1,15.8c2.6,1.2,11.1,4.5,17,6.3      c-0.8-0.1-1.7,1-1.9,2.5c-0.2,1.5,0.3,2.8,1.1,3c-7.3,0.4-18.9-1.7-24.4-5.9C1668.6,84,1660.3,72.8,1660.5,70z"></path>
				<path class="st5" d="M1613.9,168.9l-1.9,2.8c0,0-2.5,0.3-3-0.9c-0.4-1.3,2-4.8,2-4.8L1613.9,168.9z"></path>
				<path class="st7" d="M1653.6,121.3c0,0-14.6,23.5-17.9,27c-5.8,5.9-21.7,21.1-21.7,21.1s-1,0.1-3.6-1c-2.5-1-2.6-1.7-2.6-1.7      s12.9-24.6,19.1-26.8c2.8-1,3.9-10.1,6.2-17.2c3.2-9.6,7.5-17.9,9.8-20.2C1646.8,98.6,1653.6,121.3,1653.6,121.3z"></path>
				<path class="st5" d="M1648.2,157l-2.9,2.2c0,0-2.7-0.5-2.7-1.9c-0.1-1.4,3.6-4.3,3.6-4.3L1648.2,157z"></path>
				<path class="st7" d="M1645.5,97.9c0,0-6.1,4.7-3.8,13c2.3,8.3,20.7,24.2,20.7,24.2s-2.8-0.1-9.6,8.1c-6.7,8.2-7.8,10.1-7.8,10.1      c0.1,3,3.4,4.4,3.4,4.4s28.1-13.5,30.6-23.1c2.1-8.2-15.5-29.9-20.2-32.9C1654.1,98.9,1645.5,97.9,1645.5,97.9z"></path>
				<path class="st7" d="M1647.3,157.1c0.2-1,0.7-1.9,1.3-2.7c-1-0.6-1.9-1.4-2.8-2.2c0.5-0.7,1.2-1.7,2.4-3.1      c1.5,1.6,4.2,3.1,8.8,4.2c-4.9,2.8-8.7,4.6-8.7,4.6C1648,157.6,1647.6,157.4,1647.3,157.1z"></path>
				<path class="st8" d="M1643.8,157.7c0,0,2.5-0.2,2.4,0.9c-0.1,1.1-0.7,5.5,0.1,7.4c0.8,1.9,2.6,4.4,1.1,5.3      c-1.5,0.9-5.4-0.9-7.2-4.4c-1.8-3.5-3.2-6.4-2.6-7c0.6-0.6,5.5-5.3,6-3.7C1643.8,156.7,1643.9,157.2,1643.8,157.7z"></path>
				<path class="st5" d="M1646.4,160c0,0-3.9-1.2-3.9,0.5s3.6,2.2,3.6,2.2L1646.4,160z"></path>
				<path class="st5" d="M1646.2,164.2c0,0-4,0.2-3.4,1.9c0.6,1.7,4.1,0.7,4.1,0.7L1646.2,164.2z"></path>
				<path class="st7" d="M1645.5,97.9c0,0,8.6,0.9,13.3,3.9c1,0.7,2,1.5,2.8,2.4c-5,0.1-15.4,0.8-20.3,4.5c-0.2-2,0-4.1,0.8-5.9      C1642.8,100.9,1643.9,99.3,1645.5,97.9z"></path>
				<path class="st8" d="M1610,171.5c0,0,2.4-1.3,2.8-0.2c0.4,1.1,3.3,5.3,4.8,6.9c1.6,1.5,2,2.7,0.9,4.2c-1.1,1.6-2.6,0.3-6.5-1.4      c-4.4-1.9-7.5-3.9-7.2-4.8c0.3-0.8,3.2-7.6,4.3-6.2C1609.5,170.5,1609.8,171,1610,171.5z"></path>
				<path class="st5" d="M1613.6,172.4c0,0-4.1,1.4-2.9,2.9c1.2,1.5,4.5-0.5,4.5-0.5L1613.6,172.4z"></path>
				<path class="st5" d="M1616.2,175.7c0,0-3.9,1.9-2.6,3.3c1.3,1.4,4.4-0.9,4.4-0.9L1616.2,175.7z"></path>
				<path class="st7" d="M1649.5,127.8c-2.8,4.5-6.6,10.4-9.6,14.7c-1.1-2.9-1.5-6-1-9.1C1639.8,127.3,1646.6,127.5,1649.5,127.8z"></path>
				<path class="st9" d="M1672.7,74.4c0.3,8.1-14.2,13.1-10.4,28.3c-7.6,1.8-17.3,0.6-22.1-5.6c13.7-10.8,4.1-33.2,15.1-36.6      C1665.2,57.4,1672.3,64.3,1672.7,74.4z"></path>
				<path class="st8" d="M1669.6,70.6c-1,1.1-0.9,0.5-1,0.8l0.4-3.9l1-2.2c0.4,0.6,0.8,1.2,1.1,1.9      C1671.2,68.1,1671.3,68.9,1669.6,70.6z"></path>
				<path class="st8" d="M1649.6,68.4c0.6-3.3,1.7-5.9,4.2-7.3l4,0.7l6.5,6.2l4,3.1c0,0-1.5,3-8.5-2.4      C1658.4,67.6,1652.2,69.4,1649.6,68.4z"></path>
				<path class="st4" d="M1646.3,99.5c-1,1.1-1.4,2.4-0.8,3c0.6,0.6,1.9,0.1,2.9-1c1-1.1,1.4-2.4,0.8-3      C1648.6,98,1647.4,98.4,1646.3,99.5z"></path>
				<path class="st7" d="M1656,105.3c0,0,0.2-1.6,1.4-0.8c1.1,0.8,2,1.6,1.9,2.2c-0.1,0.6-0.9,0.9-0.9,0.9L1656,105.3z"></path>
				<path class="st10" d="M1646.7,108.5c3.5,2.4,9.8,3.8,11.5-0.2C1662.2,99.5,1636.3,101.4,1646.7,108.5z M1653.4,106.2      c0.6-1.5,2-2.4,3.2-2c1.2,0.4,1.7,2,1.2,3.6c-0.6,1.5-2,2.4-3.2,2C1653.4,109.3,1652.9,107.7,1653.4,106.2L1653.4,106.2z"></path>
				<path class="st5" d="M1648.8,97.8c0,0,1.8,4.7,4.9,4.3c3-0.4,6.7,3.5,5.9,3.7c-1,0.3-1.4-0.3-2.2-0.7c-0.2-0.1-0.3-0.1-0.5-0.2      l-0.1,0.1c0.5,0.5,1.2,1.2,1.6,1.3c0.8,0.2,1.2-0.5,1,0.6c0,0.1,0,0.2-0.1,0.3c-0.1,0.1-0.1,0.2-0.2,0.2c0.2,0,0.3,0,0.2,0.7      c0,0.2-0.1,0.3-0.2,0.5c-0.1,0.1-0.3,0.2-0.5,0.2c0.2,0,0.2,0.1,0.1,0.7c-0.1,0.4-0.5,0.6-1,0.5c0,0.1-0.1,0.3-0.1,0.4      c-0.3,1-2.1,0.2-2.9-0.6c-0.3-0.3-0.6-0.6-0.8-1c-0.4-0.5-1.4-1.8-1.8-2.2c-3.1-3-4.1-3.3-6.1-5.1      C1644,99.6,1648.8,97.8,1648.8,97.8z"></path>
				<path class="st4" d="M1648.8,97.8c0.1,0.3,0.3,0.6,0.4,0.9c-0.7,0.6-2,2-2.1,3.8c-0.4-0.3-0.7-0.6-1.2-1      C1644,99.7,1648.8,97.8,1648.8,97.8z"></path>
				<path class="st6" d="M1646.7,66.9c5-3.5,12.3-5.9,13,1.6c0.9,8.4-20.9,14.9-19.8,16.4c5.2,6.8,9.4,13.7,9.4,13.7      c0,0-0.1-0.1-0.1-0.1c-0.6-0.6-1.9-0.1-2.9,1c-0.9,1-1.3,2.2-0.9,2.8c-5.4-3.9-15.7-12-15.8-17.8      C1629.3,77.5,1638.2,72.9,1646.7,66.9z"></path>
				<path class="st4" d="M1652.5,64c3.2-0.9,6-0.4,6.9,3.2C1657.5,65.4,1655.1,64.3,1652.5,64z"></path>
				<path class="st8" d="M1663.6,58.6c0,0-2.7-7.7-9.9-9.9c-7.2-2.2-16.9-0.6-12.9,0.6c3.3,1,2.8,10.1,4.7,10.5c2,0.4,15,2.8,15,2.8      L1663.6,58.6z"></path>
				<path class="st7" d="M1664.3,53.8c4.8,0,8.7-2.5,8.7-5.6c0-3.1-3.9-5.6-8.7-5.6s-8.7,2.5-8.7,5.6      C1655.6,51.3,1659.5,53.8,1664.3,53.8z"></path>
				<path class="st5" d="M1661.5,67.6c-0.3-1.1-0.8-2.1-1.5-3c-1-1.1-2.3-2.2-3.8-2.5c2-1.1,3.9-2.4,5.6-4c1.7-1.5,3.3-3.2,4.7-4.9      c0.6-0.7,1.1-1.4,1.6-2.1l2,4.3c0,0-2.5,3.9-2.1,6.9c0.4,3,3.4,7.4,0.8,9.1c-1,0.6-4.7-2.2-7.2-3.6      C1661.6,67.7,1661.5,67.7,1661.5,67.6z"></path>
				<path class="st5" d="M1667.7,50.1c-1.3,3.7-0.5,7.4,2.3,8.4c2.8,1,6.6-1,7.9-4.7c1.3-3.7,0.1-7.5-2.7-8.5      S1669.1,46.4,1667.7,50.1z"></path>
				<path class="st5" d="M1668.9,49.3c0,0-1.2-2.5-2.7,0c-1.5,2.4,1.5,3.6,1.5,3.6L1668.9,49.3z"></path>
				<path class="st7" d="M1674,45.4c0.5-0.2,1-0.3,1.4-0.4c0.4,0.3,1,0.5,1.5,0.5c0.7-0.1,1.4-0.2,2.1-0.4c0.7-0.2,1.6-0.4,2.3,0      c1.3,0.7,1.1,2.7,3.4,2.6c0.4,0,0.8-0.1,1.1-0.3c0.3-0.2,0.6-0.5,0.8-0.8c0.4-0.8,0.9-1.7,2.3-1.9c1-0.1,2.1,0.2,2.6,0.8      c0.2,0.3,0.7,1.1,0.2,1.3c0.2-0.4-0.4-0.9-1.1-0.9c-0.9-0.1-1.8,0.2-2.2,0.7c-0.4,0.5-0.4,1.3-0.5,1.9c-0.1,0.5-0.3,1-0.7,1.4      c-0.3,0.4-0.8,0.7-1.3,0.9c-1.2,0.4-2.6,0.3-3.5-0.4c-0.6-0.5-0.8-1.4-1.8-1.6c-0.8-0.1-1.7,0.5-2.3,0.7      c-1.1,0.5-2.3,0.7-3.6,0.6c-1.1-0.1-3.3-0.9-3.3-1.8c0-0.7-0.3-0.6,0.2-1.2C1672.4,46.2,1673.2,45.7,1674,45.4z"></path>
				<path class="st7" d="M1667,44.8c-0.5,1.8,1.3,3.6,4.1,3.9c2.8,0.4,7.5-0.1,8-1.9c0.5-1.8-0.2-3.5-5.3-4.2      C1669.6,42,1667.5,43,1667,44.8z"></path>
				<path class="st9" d="M1668.2,63.3c0-0.1-0.2-0.9-0.2-1c-0.1-0.5-0.1-1,0-1.5c1,1,2.2,2.3,2.5,3.5c1.2,4.9-1.7,7.2-1.7,7.2      s-1.5-2.2-0.4-4.7C1668.8,65.9,1668.6,64.6,1668.2,63.3z"></path>
				<path class="st9" d="M1668.8,71.4c-0.2-0.2-3.7-10.2-11.2-11.2c-7.4-1-12-1.1-13.1-6.1c-1.1-5-3.7-4.9-3.7-4.9s2.9,1.7,2.1,5.8      c-0.8,4.1-0.7,8.5,5.5,7.9c14.6-1.3,9.6,6,17.3,8.1C1668,71.6,1668.8,71.4,1668.8,71.4z"></path>
				<path class="st8" d="M1667.9,71c0,0,0,0.1,0.1,0.1c0,0,0.1,0.1,0.1,0.1c0,0,0.1,0,0.1,0c0,0,0.1,0,0.1-0.1c0,0,0-0.1,0.1-0.1      c0,0,0-0.1,0-0.1c0,0-0.1-0.1-0.1-0.1c0,0-0.1,0-0.1,0c-0.1,0-0.1,0-0.2,0.1C1667.9,70.8,1667.8,70.9,1667.9,71z"></path>
				<path class="st8" d="M1668.9,70.6c0,0,0.1,0.1,0.1,0.1c0,0,0.1,0,0.1,0c0,0,0.1,0,0.1-0.1c0,0,0.1-0.1,0.1-0.1s0-0.1,0-0.1      c0,0,0-0.1-0.1-0.1c0,0-0.1,0-0.1,0c0,0-0.1,0-0.1,0c-0.1,0-0.1,0.1-0.1,0.2C1668.9,70.5,1668.9,70.6,1668.9,70.6z"></path>
				<path class="st4" d="M1629.7,59.5c2.2-1.3,4.7-1.4,7.1-0.8c5.4,1.4,9.4,5.5,13.6,8.9c1.5,1.2,3,2.4,4.6,3.4      c1.6,1.1,3.4,2,5.3,2.7c1.8,0.6,3.7,0.7,5.5-0.1c0.8-0.3,1.4-0.9,1.8-1.6c0.1-0.2,0.2-0.4,0.3-0.6c0-0.1,0-0.5,0.2-0.6      c0.2,0,0.1,0.4,0,0.5c-0.1,0.2-0.1,0.4-0.2,0.6c-0.2,0.5-0.6,0.9-1,1.3c-0.4,0.4-0.9,0.6-1.4,0.8c-2.8,1-5.8-0.1-8.2-1.4      c-2.7-1.6-5.3-3.4-7.7-5.5c-2.1-1.8-4.2-3.7-6.5-5.2c-2.9-2-6.3-3.7-9.9-3.4c-3.5,0.3-7.1,3.3-7.7,6.8c0,0.1-0.2,0.1-0.2-0.1      C1625.6,62.8,1627.5,60.7,1629.7,59.5z"></path>
				<path class="st4" d="M1624.8,64.8c0,0.2,0,0.3,0.1,0.4s0.2,0.2,0.3,0.3c0.1,0.1,0.3,0.1,0.4,0c0.1,0,0.3-0.1,0.4-0.2      c0.1-0.1,0.2-0.2,0.2-0.4c0-0.1,0-0.3,0-0.4c-0.1-0.1-0.2-0.3-0.3-0.3c-0.1-0.1-0.3-0.1-0.4-0.1c-0.2,0-0.4,0.1-0.5,0.2      C1624.8,64.4,1624.8,64.6,1624.8,64.8z"></path>
				<path class="st4" d="M1624.9,56.8c0,0.2,0.1,0.3,0.1,0.4c0.1,0.1,0.2,0.2,0.4,0.3s0.3,0.1,0.4,0c0.1,0,0.3-0.1,0.4-0.2      c0.1-0.1,0.2-0.2,0.2-0.4c0-0.1,0-0.3,0-0.4c-0.1-0.1-0.2-0.3-0.3-0.3c-0.1-0.1-0.3-0.1-0.4-0.1c-0.1,0-0.2,0-0.3,0.1      c-0.1,0-0.2,0.1-0.3,0.2c-0.1,0.1-0.1,0.2-0.2,0.3C1625,56.5,1624.9,56.7,1624.9,56.8z"></path>
				<path class="st4" d="M1625.5,56.8c0.9-0.9,2-1.7,3.1-2.4c1.2-0.6,2.5-1,3.8-1.1c3-0.3,6.1,0.5,8.7,1.8c2.8,1.3,5.2,3.4,7.4,5.5      c2.3,2.2,4.1,4.9,6.2,7.3c2.2,2.6,4.8,5.3,8.1,6.6c1.6,0.6,3.4,0.8,5,0c0.4-0.2,0.8-0.6,1-1c0.2-0.4,0.4-0.9,0.3-1.4      c0-0.3,0-0.5,0-0.8c0-0.2,0-0.3-0.1-0.5c0-0.1-0.1-0.3,0-0.4c0.1-0.3,0.3,0.4,0.3,0.5c0,0.2,0,0.5,0.1,0.7c0.1,0.5,0,1-0.2,1.5      c-0.2,0.5-0.5,0.9-0.9,1.2c-1.7,1.4-4.3,0.8-6.1,0c-2.2-1-4.1-2.8-5.8-4.5c-1.9-2-3.6-4.3-5.3-6.4c-1.6-1.9-3.4-3.7-5.3-5.2      c-2-1.7-4.3-3-6.7-3.9c-2.4-0.9-5-1.1-7.5-0.8c-2.4,0.4-4.2,1.7-5.9,3.3C1625.6,57.1,1625.4,56.9,1625.5,56.8z"></path>
				<path class="st11" d="M1601.7,104.8c5.8-7.8,16.3-9.2,25.2-7.7c3.3,0.6,6.5,1.5,9.5,2.9c1.7,0.8,3.3,1.6,4.8,2.7      c1,0.7,2,1.4,3.1,2c-0.2,0.4-0.2,0.8-0.1,1.1c-1.8-0.8-3.4-2.1-5.1-3.2c-2.7-1.6-5.6-2.8-8.7-3.6c-4.7-1.4-9.6-1.7-14.5-1      c-4.8,0.7-9.3,2.8-12.5,6.4c-1.6,1.7-2.7,3.8-3.4,6c-0.6,2.3-0.7,4.6-0.3,6.9c1.7,9.1,11.2,16,20.3,12.1c4-1.7,7.2-5,10.6-7.6      c3.4-2.6,7.2-4.5,11.6-4.7c1.8-0.1,3.8,0.2,5.2,1.5c1.6,1.5,1.6,4.2,1.1,6.1c-0.7,2.5-2.6,4.5-4.3,6.4c-1.9,2-3.8,4-5.4,6.3      c-1.6,2.3-2.8,5-2.4,7.8c0.4,2.6,2.2,4.7,4.2,6.2c3.7,2.8,8.6,3.7,13.2,3.6c4.6-0.1,9.3-1.4,12.8-4.3c3.8-3.1,6.1-7.6,8.1-12      c2-4.3,3.6-8.8,5.8-13c2.3-4.3,5.4-8.4,9.3-11.5c3.8-3,8.5-4.5,13.3-3.7c4.6,0.8,7.6,4.4,8.7,8.8c1,4.1-0.3,8.1-0.1,12.2      c0.1,2,0.7,3.9,2.7,4.7c2.4,1,5.2,0.1,7.6-0.3c2.3-0.4,4.6-0.3,6.5,1.1c2.2,1.6,2.5,4.2,2.7,6.7c0.1,0.7-1,0.7-1.1,0      c-0.1-1.4-0.2-2.9-0.9-4.2c-0.4-0.7-0.9-1.3-1.5-1.7c-0.6-0.5-1.3-0.8-2.1-0.9c-2.4-0.6-5.1,0.4-7.5,0.7c-2.1,0.2-4.3,0-5.9-1.4      c-1.3-1.2-1.7-3.1-1.8-4.7c-0.1-2,0.2-4,0.4-6c0.3-2.1,0.1-4.3-0.4-6.4c-0.6-2.3-1.9-4.3-3.8-5.8c-2.1-1.5-4.7-2-7.3-1.9      c-5.2,0.2-9.6,3.6-12.9,7.3c-3.2,3.7-5.6,8-7.5,12.4c-3.6,8.3-6.9,18.7-15.8,22.8c-7.6,3.5-18.6,3-24.8-2.9      c-1.7-1.6-3-3.7-3.3-6.1c-0.3-2.5,0.6-4.9,1.9-7.1c1.4-2.3,3.2-4.3,5-6.3c1.9-2,4-4,5.1-6.6c0.9-2.3,0.8-5.4-1.8-6.5      c-1.9-0.8-4.4-0.5-6.3,0c-4.4,1-7.9,4.1-11.3,6.9c-3.3,2.7-6.8,5.3-11,6c-4.3,0.7-8.6-0.8-11.9-3.5c-3.3-2.8-5.5-6.6-6.2-10.9      c-0.4-2.2-0.3-4.4,0.2-6.5C1599.4,108.6,1600.3,106.6,1601.7,104.8z"></path>
				<path class="st10" d="M1667.5,51.6c0,0-0.1,0-0.1,0c0,0-0.1,0-0.1-0.1c0,0-0.1-0.1-0.1-0.1c0,0,0-0.1,0-0.1c0,0,0-0.1,0-0.1      c0.1-0.3,0.3-0.6,0.5-0.8c0.1-0.1,0.2-0.1,0.3-0.1c0.1,0,0.2,0.1,0.2,0.1c0.1,0.1,0.1,0.2,0.1,0.3c0,0.1-0.1,0.2-0.1,0.2      c-0.1,0.1-0.2,0.3-0.3,0.5c0,0.1-0.1,0.1-0.1,0.2C1667.6,51.6,1667.6,51.6,1667.5,51.6z"></path>
				<path class="st5" d="M1672.3,53.7c-0.2,0.3-0.4,0.4-0.5,0.3c-0.2-0.1-0.1-0.4,0-0.6c0.1-0.3,0.4-0.4,0.5-0.3      C1672.4,53.1,1672.4,53.4,1672.3,53.7z"></path>
				<path class="st8" d="M1709.3,164.4c2.4-1.2,4.1-3.5,5.6-5.7c0.1-0.2,0.3-0.4,0.4-0.6l-1.5-7.5c-1.3-0.4-2.6-0.4-3.9,0      c-2.5,0.8-4.4,2.7-6.5,4.2c-2.1,1.5-4.9,2.6-7.3,1.5c-0.3,0.1-0.5,0.3-0.7,0.6c-0.2,0.3-0.3,0.6-0.2,0.9      c0.1,0.6,0.3,1.3,0.6,1.8c1.3,2.3,3.4,4.1,5.9,5.1c1.2,0.5,2.5,0.7,3.9,0.7C1706.9,165.3,1708.2,165,1709.3,164.4z"></path>
				<path class="st9" d="M1743.6,150.1c-0.8-0.5-1.7-0.9-2.7-1.1c-1-0.2-1.9-0.1-2.9,0.1c-1,0.2-1.8,0.7-2.6,1.3      c-0.8,0.6-1.4,1.3-1.9,2.2c-0.4,0.6-0.6,1.4-0.5,2.1c0.2,0.7,0.5,1.4,1,1.9c1.2,1.6,2.4,3.3,4.1,4.1c1.8,0.8,3.8,0.7,5.6,0.2      c2-0.5,3.9-1.4,5.7-2.6c1.7-1.2,3.5-2.7,5.4-2.1c0.5,0.1,1,0.4,1.4,0.2c0.7-0.3,0.7-1.2,0.5-1.9c-0.1-0.6-0.3-1.2-0.6-1.7      c-1-1.4-3.1-1.5-4.8-1.1c-1.7,0.3-3.5,0.9-5.1,0.3C1745.3,151.6,1744.5,150.8,1743.6,150.1z"></path>
				<path class="st8" d="M1735.8,145.6c-2.5-0.3-5-0.3-7.4,0.1c-2.3,0.4-4.6,1.1-6.8,1.7c-2.2,0.6-4.5,1-6.7,1.2      c-2,0.2-4.4,0.2-5.7-1.4c-0.4-0.6-0.7-1.3-1.2-1.9c-0.4-0.6-1.2-1-1.9-0.8c-0.7,0.3-0.9,1.3-0.7,2c0.2,0.8,0.7,1.4,1.1,2.1      c1.2,2.6-0.4,5.7,0.3,8.4c0.3,1,0.9,1.9,1.7,2.6c0.8,0.7,1.8,1.1,2.9,1.2c2.1,0.1,4.1-1,6.3-1c1.9,0.1,3.6,1.1,5.3,1.9      c3,1.4,6.3,2.3,9.6,1.8c3.3-0.4,6.4-2.2,8-5.1c1-1.8,1.3-3.9,1.3-5.9c0-2-0.4-4.2-1.9-5.6      C1738.7,146.1,1737.2,145.7,1735.8,145.6z"></path>
				<path class="st8" d="M1743.7,139.5c0.3,0.6,0.5,1.3,1.2,1.6c0.3,0.1,0.6,0.1,0.9,0.1c1.6-0.2,4-2.5,2.9,2.6      c-0.6,2.6-8.3,6-8.7,6.1c-1.4,0.5-2.9,0.5-4.2,0.1c-0.9-0.3-1.7-0.8-2.1-1.6c-0.5-0.9-0.5-2-0.4-3c0.1-0.9,0.5-1.8,0.5-2.7      c0.1-0.8-0.1-1.4,0.3-2.2C1736.2,136,1742.4,137.2,1743.7,139.5z"></path>
				<path class="st8" d="M1713.1,160.2c0.4-1.5,0.7-3.2,0.1-4.7c-0.3-0.7-0.8-1.3-1.5-1.7c-0.6-0.4-1.4-0.7-2.1-0.7      c-1.5-0.1-3,0.5-4.2,1.5c-2,1.6-3.1,4.1-4.5,6.3c-1.4,2.2-3.6,4.2-6.2,4.1c-0.2,0.2-0.4,0.5-0.4,0.8c-0.1,0.3,0,0.6,0.1,0.9      c0.3,0.6,0.7,1.1,1.3,1.4c2.1,1.6,4.7,2.5,7.3,2.5c1.3,0,2.6-0.3,3.8-0.8c1.2-0.5,2.3-1.3,3.2-2.3      C1711.8,165.6,1712.4,162.8,1713.1,160.2z"></path>
				<path class="st9" d="M1742,156.2c-0.6-0.8-1.4-1.4-2.2-1.8c-0.9-0.4-1.8-0.7-2.8-0.8c-1-0.1-1.9,0.1-2.9,0.4      c-0.9,0.3-1.7,0.9-2.4,1.6c-0.6,0.5-0.9,1.2-1.1,1.9c-0.1,0.7,0.1,1.4,0.3,2.1c0.6,1.9,1.3,3.8,2.7,5.1c1.4,1.3,3.4,1.8,5.3,1.9      c2.1,0.1,4.2-0.1,6.2-0.8c1.9-0.6,4.1-1.5,5.8-0.5c0.4,0.3,0.8,0.6,1.3,0.6c0.7-0.1,1-1,1.1-1.7c0.1-0.6,0.1-1.2-0.1-1.8      c-0.5-1.6-2.5-2.3-4.2-2.5c-1.7-0.2-3.6-0.1-5-1.2C1743.1,158.1,1742.7,157,1742,156.2z"></path>
				<path class="st12" d="M1712.8,159.7c-0.1,0-0.1,0-0.1,0c0,0-0.1,0-0.1-0.1c0,0-0.1-0.1-0.1-0.1c0,0,0-0.1,0-0.1      c0.1-1.7-0.7-2-0.7-2c-0.1,0-0.2-0.1-0.2-0.2c0-0.1,0-0.2,0-0.3c0-0.1,0.1-0.2,0.2-0.2c0.1,0,0.2,0,0.3,0c0.1,0,1.2,0.5,1.1,2.7      c0,0,0,0.1,0,0.1c0,0,0,0.1-0.1,0.1c0,0-0.1,0.1-0.1,0.1C1712.9,159.7,1712.9,159.7,1712.8,159.7z"></path>
				<path class="st12" d="M1746.7,161.7c-0.1,0-0.1,0-0.2-0.1c-0.3-0.2-0.7-0.4-1.1-0.5c0,0-0.1,0-0.1-0.1c0,0-0.1-0.1-0.1-0.1      c0,0,0-0.1-0.1-0.1c0,0,0-0.1,0-0.1c0,0,0-0.1,0.1-0.1c0,0,0.1-0.1,0.1-0.1c0,0,0.1,0,0.1,0c0.1,0,0.1,0,0.1,0      c0.5,0.1,0.9,0.3,1.3,0.6c0.1,0.1,0.1,0.1,0.1,0.2c0,0.1,0,0.2-0.1,0.3c0,0-0.1,0.1-0.1,0.1      C1746.8,161.7,1746.7,161.7,1746.7,161.7z"></path>
				<path class="st12" d="M1746.7,159.9C1746.7,159.9,1746.6,159.9,1746.7,159.9c-1.4-0.4-4.9-3.4-5.3-3.7c-0.1-0.1-0.1-0.1-0.1-0.2      c0-0.1,0-0.2,0.1-0.2c0.1-0.1,0.1-0.1,0.2-0.1c0.1,0,0.2,0,0.2,0.1c1,0.9,3.9,3.3,4.9,3.6c0.1,0,0.2,0.1,0.2,0.1      c0,0.1,0.1,0.2,0.1,0.2c0,0.1,0,0.2-0.1,0.2C1746.8,159.8,1746.8,159.9,1746.7,159.9L1746.7,159.9z"></path>
				<path class="st12" d="M1699,163.2c0,0-0.1-0.1-0.1-0.1c0,0,0-0.1-0.1-0.1c0,0,0-0.1,0-0.1c0,0,0-0.1,0-0.1      c2.4-4.3,4.1-5.7,7.7-8l-0.1-2c0-0.1,0-0.2,0.1-0.2c0.1-0.1,0.1-0.1,0.2-0.1c0,0,0.1,0,0.1,0c0,0,0.1,0,0.1,0.1      c0,0,0.1,0.1,0.1,0.1c0,0,0,0.1,0,0.1l0.1,2.2c0,0.1,0,0.1,0,0.2c0,0.1-0.1,0.1-0.1,0.1c-3.6,2.2-5.3,3.6-7.7,7.8"></path>
				<path class="st6" d="M1734.9,146.3c7.2,4.2,6.4,2.7,7.2,2.7l0,2.4c0,0-2.4,2-7.7-2C1731.8,147.6,1734.9,146.3,1734.9,146.3z"></path>
				<path class="st9" d="M1713.5,147.3c-1,2.8-1.1,6.3,0.9,8.5c1.3,1.4,3.2,2.1,5.1,2.4c2.1,0.3,4.3,0.2,6.4-0.5      c2.1-0.6,4-1.7,5.6-3.1c1.6-1.4,2.9-3.2,3.8-5.1c0.9-2,1.4-4.1,1.4-6.2c0-1.5-0.5-3.4-2-3.8c-1.1,2.1-3.7,3.1-6.1,3.2      c-2.4,0.1-4.8-0.4-7.2-0.5c-2.4,0-5,0.5-6.6,2.4C1714.3,145.5,1713.8,146.4,1713.5,147.3z"></path>
				<path class="st12" d="M1725.7,148.3c-1,0-2.1-0.3-3-0.8c-1.4-0.6-2.7-1.1-5-0.4c-0.1,0-0.2,0-0.3,0c-0.1,0-0.1-0.1-0.2-0.2      c0-0.1,0-0.2,0-0.3c0-0.1,0.1-0.1,0.2-0.2c2.5-0.8,4-0.2,5.4,0.4c1.5,0.6,2.9,1.2,5.3,0.1c1.3-0.6,2.4-1.7,3-3      c0,0,0-0.1,0.1-0.1c0,0,0.1-0.1,0.1-0.1s0.1,0,0.1,0c0.1,0,0.1,0,0.1,0c0,0,0.1,0,0.1,0.1c0,0,0.1,0.1,0.1,0.1c0,0,0,0.1,0,0.1      c0,0,0,0.1,0,0.1c-0.7,1.5-1.9,2.7-3.4,3.4C1727.6,148.1,1726.6,148.3,1725.7,148.3z"></path>
				<path class="st12" d="M1722.5,155.9c-1.2,0-2.5-0.2-3.6-0.7c-0.1,0-0.1-0.1-0.2-0.2c0-0.1,0-0.2,0-0.3c0-0.1,0.1-0.1,0.2-0.2      c0.1,0,0.2,0,0.3,0c1.1,0.5,2.4,0.7,3.6,0.7c1.2,0,2.4-0.3,3.5-0.8c0.1,0,0.2,0,0.3,0c0.1,0,0.2,0.1,0.2,0.2c0,0.1,0,0.2,0,0.3      c0,0.1-0.1,0.2-0.2,0.2C1725.3,155.6,1723.9,155.9,1722.5,155.9z"></path>
				<path class="st6" d="M1742.3,152.7c0.2,0.7,0,1.3-0.4,1.4c-0.4,0.1-0.8-0.4-1-1.1c-0.2-0.7,0-1.3,0.4-1.4      C1741.7,151.5,1742.1,152,1742.3,152.7z"></path>
				<path class="st13" d="M1751.8,141.3c-0.2,0-0.3,0-0.5-0.1c-0.1-0.1-0.3-0.2-0.4-0.3c-0.1-0.1-0.1-0.3-0.1-0.4      c0-0.1,0-0.3,0.1-0.4c-0.1-0.2-0.2-0.3-0.4-0.4c-0.9-0.8-2.1-1.2-3.3-1.1c-0.2,0-0.5-0.1-0.6-0.2c-0.2-0.2-0.3-0.4-0.3-0.6      c0-0.2,0.1-0.5,0.2-0.6c0.2-0.2,0.4-0.3,0.6-0.3c1.6,0,3.2,0.5,4.5,1.5c0.3,0.2,0.6,0.5,0.8,0.9c0.2,0.3,0.3,0.7,0.3,1.1      c0,0.2-0.1,0.4-0.2,0.6c-0.1,0.2-0.3,0.3-0.5,0.4C1751.9,141.3,1751.9,141.3,1751.8,141.3z"></path>
				<path class="st13" d="M1752.9,139.3c-0.2,0-0.3,0-0.5-0.1c-0.1-0.1-0.3-0.2-0.3-0.4c-0.3-0.6-0.8-1.1-1.4-1.4      c-0.1-0.1-0.2-0.1-0.3-0.2c-0.1-0.1-0.1-0.2-0.2-0.3c0-0.1,0-0.2,0-0.3c0-0.1,0.1-0.2,0.1-0.3c0.1-0.1,0.1-0.2,0.2-0.3      c0.1-0.1,0.2-0.1,0.3-0.2c0.1,0,0.2,0,0.3,0c0.1,0,0.2,0,0.3,0.1c0.9,0.5,1.6,1.3,2.1,2.2c0.1,0.1,0.1,0.2,0.1,0.3      c0,0.1,0,0.2,0,0.3c0,0.1-0.1,0.2-0.2,0.3c-0.1,0.1-0.2,0.2-0.3,0.2C1753.2,139.3,1753.1,139.3,1752.9,139.3z"></path>
				<path class="st13" d="M1759.6,155.4L1759.6,155.4c-0.1,0-0.3,0-0.4-0.1c-0.1,0-0.2-0.1-0.3-0.2c-0.1-0.1-0.1-0.2-0.2-0.3      c0-0.1-0.1-0.2-0.1-0.3c0-0.7-0.3-1.4-0.7-2c-0.3-0.4-0.6-0.8-1-1.2c-0.1-0.1-0.2-0.2-0.2-0.3c-0.1-0.1-0.1-0.2-0.1-0.3      c0-0.1,0-0.2,0-0.3c0-0.1,0.1-0.2,0.2-0.3c0.1-0.1,0.2-0.2,0.3-0.2c0.1-0.1,0.2-0.1,0.3-0.1c0.1,0,0.2,0,0.3,0      c0.1,0,0.2,0.1,0.3,0.2c0.5,0.5,1,1,1.3,1.6c0.6,0.9,0.9,1.9,0.9,3c0,0.2-0.1,0.5-0.3,0.6C1760,155.3,1759.8,155.4,1759.6,155.4      z"></path>
				<path class="st3" d="M904.9,187.2c39.9,0,72.3-2.1,72.3-4.7c0-2.6-32.4-4.7-72.3-4.7c-39.9,0-72.3,2.1-72.3,4.7      C832.6,185.1,865,187.2,904.9,187.2z"></path>
				<path class="st8" d="M946.7,162.1c0,0,5.8,10.3,10,12.8s7.5,8.5,10.8,9.1c3.4,0.6,4.1-1.4,4.1-1.4s-2.5-2.1-3.3-2.8      c-7.8-7.1-11.1-18.7-15.1-20.1L946.7,162.1z"></path>
				<path class="st8" d="M918.9,146c0,0-10.3,13.6-24.9,10.4c-15-3.4-9.1-11.1-9.1-11.1c-4,1.3-6.8,6.9,0.7,11.8      c-4.8,6.2,4.9,8.7,6.3,8.4c-4.1,1.7-0.2,3.4,4.4,2.9c0.5,6.2,14,1.2,14.1,1l5.5-13.3L918.9,146z"></path>
				<path class="st8" d="M896.2,168.4c-0.2,0-0.3,0-0.5,0.1c4.7-1.9,11.5-5.6,10.3-13c7.9-2.9,12.8-9.5,12.8-9.5l-3.1,10.1      l-5.5,13.3C910.2,169.6,896.7,174.6,896.2,168.4z"></path>
				<path class="st8" d="M938.4,156.3c0,0-8.8,0.9-7.9,4.8c1.2,5.5,2.8,9.9-0.3,11.9c-3.2,2-11,3.5-11,5.4c-0.1,1.8,2.4,4.7,1.2,5.5      c-2.9,1.8-7.3-6.3-3.4-8.4c10.3-5.8-3.7-9.4,0.8-18c1.6-3,6.6-8.9,6.6-8.9L938.4,156.3z"></path>
				<path class="st8" d="M953.1,128.2c3-0.3-3.9-5.4,0-6.4c1.1-0.3,2.6,0.3,3.2,1.3c1.6,2.4-0.1,12.1,8.4,13.3      c-0.4,0.4-0.9,0.7-1.5,0.9c-0.9,0.2-1.9,0.1-2.9-0.1c-1.2-0.2-2.3-0.5-3.5-0.9c-1-0.4-2-0.9-2.9-1.6c-0.8-0.7-1.6-1.4-2.3-2.2      c-0.8-0.8-1.6-1.6-2.1-2.6C947.8,125.4,952.9,128.2,953.1,128.2z"></path>
				<path class="st9" d="M984.4,143.2c0,0-7.5-0.4-8.9-2.8c-1.3-2.5-2-4.4-7.7-5c-5.6-0.6-6.6,3.9-7.7,5.5c-1.2,1.6-3.5,2.3-5.7,3.6      c-2.2,1.3-4.3,4.6-9.2,2.5c-6.6-2.8-22.3-7.1-27.5-1.6c-8.8,9.4-7.2,21.1-9.1,21.6c-1.9,0.5-6,0.5-7.7,2.7      c-2.5,3.1-4.2,8.5-5.7,8.7c-1.5,0.2-3.4,1.8-2.7,3c0.7,1.2,2.8,1.7,4.8-0.6c2-2.3,6.8-8.5,9.1-8.6c5.6-0.3,7.6-1.9,11.2-6.4      c3.6-4.5,9.6-11.7,13.5-9.1s7.9,9.9,17.5,11.6c5.9,1,11.5-2.1,15.4-7.6c3.9-5.5,4.3-9.6,8.2-10.1c3.9-0.4,10-0.9,11.2-3.2      C984.1,146.1,984.5,144.7,984.4,143.2z"></path>
				<path class="st9" d="M957.3,143.1L957.3,143.1c1.1-0.7,2.2-1.3,2.9-2.3c0.2-0.3,0.4-0.6,0.5-0.9l3.2,1      C963.7,141,959.2,144.6,957.3,143.1z"></path>
				<path class="st9" d="M948,128.1c7.7,0.1,9.4,10.3,16.4,8.1c0,0,0,0,0,0.1c0.2,0.8,1.1,1.7,0.9,3.2c-0.3,2.5-4.2,3.5-5.1,2.3      c-0.4-0.6-0.1-1.4,0.1-2c0.2-0.6,0.3-1.3,0-1.8c-0.1-0.3-0.4-0.5-0.6-0.6c-0.3-0.1-0.6-0.2-0.8-0.1c-1.2,0.2-4.4,6.4-6.6,3.1      c-1-1.5,1.4-3.4,0.2-4.9c-1.8-2.2-4.7,1.4-7.7-0.9C942,132.4,943.3,128,948,128.1z"></path>
				<path class="st4" d="M953.9,159.4c0.3,2.3,0.8,5.7,1.6,8.2c-2.2,0.8-4.5,1-6.8,0.7c-1.1-0.2-2.2-0.5-3.2-0.8      c-1-3-1.8-5.5-2.3-7.1L953.9,159.4z"></path>
				<path class="st9" d="M954.4,158.5c0,0,2.6,10,5.5,11.5c2.9,1.5,7.9,3.2,9.2,5.2c1.3,1.9,5.7,6.4,4,7.1c-4.4,1.8-5.3-6-8.7-6.3      c-3.4-0.4-14-1.1-17.5-6.9c-3.5-5.8-5.8-10.2-5.8-10.2L954.4,158.5z"></path>
				<path class="st8" d="M971.2,150.8c-2.5,0.9-3.4,3.8-5.8,7.7c-0.6-1.4-0.6-3-0.1-4.4C966.8,149.7,969.9,150.4,971.2,150.8z"></path>
				<path class="st4" d="M956.7,143.3l0.4-0.2c-1.1,1-1.5,2,6.9,10c2.4,2.3,3.6,1.4,3.9,1.1c-0.5,0.8-1,1.8-1.6,2.9      c-1.4,0.4-6.3-2.5-9.8-7.7c-2.1-3.1-2.3-4.3-2.1-4.8l0.1-0.1C955.2,144.1,956,143.7,956.7,143.3z"></path>
				<path class="st4" d="M954.6,144.3c0.5-0.3,2.5-1.2,2.5-1.2c-1.2,1-1.5,2,7.1,9.6c3,2.6,4.1,0.8,4.1,0.8s-0.7,1.5-1.4,2.8      c-0.7,1.2-6.4-1.5-10.4-7C953.9,145.6,954.1,144.7,954.6,144.3z"></path>
				<path class="st9" d="M966.2,159.5c0.5,1.1,1.4,1.8,2,1.5c0.6-0.3,0.6-1.4,0.1-2.5c-0.5-1.1-1.4-1.8-2-1.5      C965.7,157.3,965.7,158.4,966.2,159.5z"></path>
				<path class="st9" d="M965.8,156.6c0,0.1,0,0.2,0.1,0.3c0.1,0.1,0.1,0.1,0.2,0.2c0.1,0,0.2,0,0.3,0c0.1,0,0.2-0.1,0.2-0.2      c0.1-0.1,0.1-0.2,0.1-0.3c0-0.1,0-0.2,0-0.3c0-0.1-0.1-0.2-0.2-0.2c-0.1,0-0.2-0.1-0.3-0.1c-0.1,0-0.2,0.1-0.3,0.2      C965.8,156.4,965.8,156.5,965.8,156.6z M966,156.6c0-0.1,0-0.1,0-0.1c0,0,0.1-0.1,0.1-0.1c0,0,0.1,0,0.1,0c0.1,0,0.1,0,0.1,0.1      c0,0,0.1,0.1,0.1,0.1c0,0,0,0.1,0,0.1c0,0,0,0.1-0.1,0.1c0,0-0.1,0.1-0.1,0.1c-0.1,0-0.1,0-0.2-0.1      C966.1,156.7,966,156.7,966,156.6z"></path>
				<path class="st10" d="M943.3,152.6H943c-1.9-0.1-3.7-0.8-5.2-2.1c-1.4-1.2-2.5-2.9-2.9-4.8c-0.5-2.5,0.1-5,0.8-7.3l0.1-0.5      c0.6-2.1,1.2-4.4,1.1-6.6c-0.2-2.2-1.3-4.8-3.6-5.6c-1.9-0.7-4.2-0.1-6.9,1.8c-2.7,1.8-5.1,4-7.1,6.5c-0.9,1-1.7,2.2-2.5,3.2      c-0.9,1.2-1.8,2.4-2.7,3.5c-2.2,2.6-4.5,4.3-6.8,5.2c-3,1.1-6.2,0.6-8.3-1.1c-2.7-2.3-3.1-6.2-2.6-9c0.4-2.4,1.4-4.7,2.3-6.9      c0.3-0.7,0.6-1.5,0.9-2.2c1.3-3.2,2.4-7.7,0.1-10.8c-1-1.3-2.8-2.3-4.4-1.6c-0.1,0-0.1,0-0.2,0s-0.1-0.1-0.1-0.1      c0,0,0-0.1,0-0.1c0,0,0-0.1,0-0.1s0-0.1,0.1-0.1c0,0,0,0,0.1-0.1c1.8-0.8,3.9,0.3,5,1.8c1.9,2.6,1.9,6.5,0,11.3      c-0.3,0.7-0.6,1.5-0.9,2.2c-0.9,2.2-1.9,4.4-2.3,6.8c-0.5,2.8-0.1,6.5,2.4,8.6c2,1.6,5,2.1,7.8,1c2.3-0.8,4.4-2.5,6.6-5      c1-1.1,1.8-2.3,2.7-3.5c0.8-1.1,1.6-2.2,2.5-3.3c2.1-2.5,4.5-4.7,7.2-6.6c2.9-2,5.3-2.6,7.4-1.9c2.5,0.9,3.8,3.6,4,6      c0.2,2.3-0.5,4.6-1.1,6.7l-0.1,0.5c-0.6,2.3-1.2,4.7-0.8,7.1c0.4,1.7,1.4,3.3,2.7,4.5c1.4,1.2,3.1,1.8,4.8,2      c3.1,0.1,5.8-1.5,8.6-3.1c1.5-1,3.1-1.8,4.8-2.5c0.1,0,0.1,0,0.2,0c0.1,0,0.1,0.1,0.1,0.1c0,0.1,0,0.1,0,0.2s-0.1,0.1-0.1,0.1      c-1.6,0.7-3.2,1.5-4.7,2.4C949.2,151,946.4,152.6,943.3,152.6z"></path>
				<path class="st5" d="M898.2,107.5c0,0,0.6,3.9,3.1,4.1c2.4,0.2,4.6,3.8,3.9,3.8c-0.8,0-1-0.5-1.6-0.9c-0.1-0.1-0.2-0.2-0.4-0.2      l-0.1,0.1c0.3,0.5,0.7,1.1,1,1.3c0.6,0.3,1-0.2,0.7,0.6c0,0.1-0.1,0.1-0.1,0.2c-0.1,0.1-0.1,0.1-0.2,0.1c0.2,0,0.2,0.1,0.1,0.5      c0,0.1-0.1,0.2-0.3,0.3c-0.1,0.1-0.3,0.1-0.4,0.1c0.1,0,0.2,0.1-0.1,0.5c-0.1,0.1-0.2,0.2-0.4,0.3c-0.2,0-0.3,0-0.5-0.1      c0,0.1-0.1,0.2-0.1,0.3c-0.4,0.7-1.6-0.2-2.1-0.9c-0.2-0.3-0.3-0.6-0.5-0.9c-0.2-0.5-0.8-1.6-1-2c-1.9-2.8-2.6-3.1-3.8-4.9      C894.2,108.1,898.2,107.5,898.2,107.5z"></path>
				<path class="st10" d="M894.9,115.3c2.3,2.4,6.8,4.5,8.8,1.7C908.1,110.9,888,108.2,894.9,115.3z M900.4,114.6      c0.7-1.1,1.9-1.5,2.7-1c0.8,0.5,1,1.8,0.3,2.9c-0.7,1.1-1.9,1.5-2.7,1C899.8,117,899.7,115.7,900.4,114.6z"></path>
				<path class="st5" d="M903.6,114.3c0.9,0.6,1.6,1.3,1.5,1.7C904.6,118.6,900.7,112.3,903.6,114.3z"></path>
				<path class="st5" d="M903.1,115.1c1,0.7,1.8,1.5,1.7,2C904.2,120.1,899.8,112.9,903.1,115.1z"></path>
				<path class="st5" d="M902.5,116.1c1,0.7,1.8,1.5,1.7,2C903.6,121,899.2,113.9,902.5,116.1z"></path>
				<path class="st5" d="M901.8,117c0.9,0.6,1.5,1.3,1.5,1.7C902.8,121.4,899,115.1,901.8,117z"></path>
				<path class="st4" d="M878.6,57.1c0,0,6.4-0.8,7.4,7.3c1,8,2.6,21.1,3.8,23.4c1.1,2.3,10.2,22.4,10.2,22.4l-3.9,1.2      c0,0-17.2-19.4-18.5-24.1C876.4,82.5,874.1,58,878.6,57.1z"></path>
				<path class="st6" d="M878,50.5c0,0-11.1-0.4-12.2,3.1s0.1,12.2,4.3,10.9c4.2-1.3,7.5-6.7,7.5-6.7L878,50.5z"></path>
				<path class="st7" d="M868.9,92.5c0,0-4.8,15.2-1.4,19.3c3.4,4,6.3,0.1,6.5-0.2c0.2-0.3-1.5-16.1-1.5-16.1L868.9,92.5z"></path>
				<path class="st5" d="M845.7,164.3l-3.5,5.6c0,0-4-1.1-4-2c0-0.8,3-5.4,3-5.5C841.3,162.4,845.7,164.3,845.7,164.3z"></path>
				<path class="st7" d="M877.9,113.8c0,0-9.7,24.1-12.2,26.4c-2.5,2.3-19.1,26.4-19.1,26.4c-1.5,0-4.7-1.2-6-3.4      c0,0,12-26.9,14.6-29.6c2.5-2.6,13.3-34.7,17.1-35.1C876.2,98.1,877.9,113.8,877.9,113.8z"></path>
				<path class="st14" d="M833.8,168c-1.4,1.8-2.4,2.6-1.7,3.1c0.7,0.5,3.2,3.4,4.2,3.2c0.9-0.2,1.4-0.1,1.6,0.5      c0.2,0.6,1.6,2.7,5.3,4.7c3.7,1.9,3.8,1.7,4.4,0.9c0.6-0.8-3-4.3-2.3-6.6c0.7-2.3,1.5-7-1.2-7.3c-2.8-0.3-3.3,0.4-3.3,0.4      s0.5-2.7-0.6-3.3C839,162.8,835.3,166.2,833.8,168z"></path>
				<path class="st10" d="M839.7,172.6c1.7,1.2,5.5,1.8,5.7,1.8c0,0,0,0,0,0c0,0,0,0,0,0s0,0,0,0c0,0,0,0,0,0c0,0,0,0,0,0      c0,0,0,0,0,0c0,0,0,0,0,0s0,0,0,0c-0.1,0-5.2-0.8-6.2-2.3c-0.1-0.1-0.1-0.2-0.1-0.3c0-0.1,0-0.2,0-0.4c0-0.1,0.1-0.2,0.2-0.3      c0.1-0.1,0.2-0.2,0.3-0.2c1.7-0.9,6.7,0.7,6.6,0.7c-0.1,0,0.1,0,0.1-0.1c0,0,0,0,0-0.1c0,0,0,0,0,0c-0.2-0.1-5.1-1.6-6.7-0.7      c-0.1,0.1-0.2,0.2-0.3,0.3c-0.1,0.1-0.2,0.2-0.2,0.4c0,0.1,0,0.3,0,0.4c0,0.1,0.1,0.3,0.2,0.4      C839.3,172.2,839.5,172.4,839.7,172.6z"></path>
				<path class="st10" d="M841.1,176.3c1.6,1.1,3.3,2.1,5,3c0,0,0,0,0.1,0c0,0,0,0,0,0c0,0,0,0,0,0c0,0,0,0,0,0c0,0,0,0,0,0      c0,0,0,0,0,0c-0.1,0-6.8-3.4-7.6-5.7c-0.9-2.3-4.8-4.3-5-4.4c0,0,0,0-0.1,0c0,0,0,0,0,0c0,0,0,0,0,0.1c0,0,0,0,0,0      c0,0,4,2,4.9,4.3C838.8,174.4,839.9,175.4,841.1,176.3z"></path>
				<path class="st10" d="M834.8,168c0.1,0.1,0.2,0.1,0.3,0.1c0.5,0.1,1.1-0.1,1.8-0.7c1.8-1.5,1.3-3,1.3-3c0,0,0,0,0,0c0,0,0,0,0,0      c0,0,0,0,0,0c0,0,0,0,0,0c0,0,0,0,0,0c0,0,0,0,0,0c0,0,0,0,0,0c0,0,0,0,0,0c0,0.1,0.5,1.5-1.2,2.9c-0.7,0.5-1.2,0.8-1.6,0.7      c-0.1,0-0.2-0.1-0.3-0.1c-0.1-0.1-0.2-0.2-0.2-0.3c0,0,0,0,0,0s0,0-0.1,0c0,0,0,0,0,0c0,0,0,0,0,0c0,0,0,0,0,0c0,0,0,0,0,0      C834.6,167.7,834.7,167.9,834.8,168z"></path>
				<path class="st10" d="M837.8,170.9L837.8,170.9C837.8,170.9,837.9,170.9,837.8,170.9C837.9,170.9,837.9,170.9,837.8,170.9      c0.1,0,0.1,0,0.1,0c0,0,0,0,0,0c0.2-0.8,1.8-1.1,1.8-1.1c0,0,0,0,0,0c0,0,0,0,0,0l0.8-2.6c0,0,0,0,0,0c0,0,0,0,0,0c0,0,0,0,0,0      c0,0,0,0,0,0c0,0,0,0,0,0c0,0,0,0,0,0c0,0,0,0,0,0c0,0,0,0,0,0l-0.8,2.5c-0.3,0.1-1.6,0.4-1.9,1.2      C837.8,170.8,837.8,170.9,837.8,170.9C837.8,170.9,837.8,170.9,837.8,170.9z"></path>
				<path class="st5" d="M875.8,170.6l-3.6,5.5c0,0-4-1.2-4-2.1c0-0.9,3.1-5.3,3.1-5.4C871.4,168.7,875.8,170.6,875.8,170.6z"></path>
				<path class="st7" d="M870,94.9c0,0-4.1,10.5,1.8,18c5.9,7.5,11.1,23.6,11.1,23.6s-1.1,2.5-2.8,7.9c-1.7,5.4-9.6,24.5-9.6,24.5      c1.3,2.2,4.6,3.2,6.8,2.2c0,0,21.4-29.5,17.3-41.2c-4-11.8-11.6-38.4-11.6-38.4L870,94.9z"></path>
				<path class="st14" d="M866.2,178.8c-0.1,2.4-0.5,3.7,0.4,3.6c0.9,0,4.8,0.9,5.4,0.1c0.6-0.8,1.1-1,1.6-0.5      c0.5,0.4,3.1,1.3,7.3,0.7c4.3-0.7,4.2-0.9,4.2-1.9c0-1-5.2-1.8-6-4.1c-0.8-2.4-3-6.8-5.5-5.4c-2.5,1.5-2.5,2.3-2.5,2.3      s-1.2-2.6-2.5-2.5C867.5,171.3,866.3,176.4,866.2,178.8z"></path>
				<path class="st10" d="M874,179.1c2.1,0,5.8-1.9,5.9-2c0,0,0,0,0,0c0,0,0,0,0,0c0,0,0,0,0,0c0,0,0,0,0,0c0,0,0,0,0,0      c0,0,0,0-0.1,0c-0.1,0-4.8,2.5-6.6,1.8c-0.1,0-0.2-0.1-0.3-0.2c-0.1-0.1-0.2-0.2-0.2-0.3c0-0.1-0.1-0.2-0.1-0.4s0-0.3,0.1-0.4      c0.8-1.7,5.9-3.4,6-3.4c0,0,0,0,0,0c0,0,0,0,0,0s0,0,0,0c0,0,0,0,0,0c0,0,0,0,0,0c0,0,0,0,0,0c0,0,0,0,0,0c0,0,0,0,0,0      c-0.2,0.1-5.3,1.7-6.1,3.5c-0.1,0.1-0.1,0.3-0.1,0.4s0,0.3,0.1,0.4c0.1,0.1,0.1,0.3,0.3,0.4c0.1,0.1,0.2,0.2,0.4,0.2      C873.4,179,873.7,179.1,874,179.1z"></path>
				<path class="st10" d="M877.5,181.3c2,0,4-0.2,6-0.5c0,0,0,0,0,0c0,0,0,0,0,0c0,0,0,0,0,0c0,0,0,0,0,0c0,0,0,0,0,0c0,0,0,0,0,0      c0,0,0,0,0,0c0,0,0,0,0,0c-0.1,0-7.8,1.3-9.9-0.2s-6.7-0.7-6.9-0.7c0,0,0,0,0,0c0,0,0,0,0,0c0,0,0,0,0,0c0,0,0,0,0,0      c0,0,0,0,0,0.1s0,0,0.1,0c0,0,4.6-0.8,6.8,0.7C874.3,181.2,875.8,181.3,877.5,181.3z"></path>
				<path class="st10" d="M867,178.2c0.1,0,0.2,0,0.3-0.1c0.5-0.2,0.8-0.7,1.1-1.7c0.6-2.3-0.8-3.3-0.8-3.3c0,0,0,0,0,0c0,0,0,0,0,0      c0,0,0,0,0,0c0,0,0,0,0,0c0,0,0,0,0,0.1c0,0,0,0,0,0.1c0.1,0,1.3,1,0.7,3.2c-0.2,0.9-0.6,1.4-1,1.5c-0.1,0-0.2,0.1-0.3,0.1      c-0.1,0-0.2,0-0.3-0.1c0,0,0,0-0.1,0c0,0,0,0-0.1,0c0,0,0,0,0,0c0,0,0,0,0,0c0,0,0,0,0,0s0,0,0,0      C866.7,178.1,866.9,178.2,867,178.2z"></path>
				<path class="st10" d="M871.4,178.8L871.4,178.8C871.4,178.8,871.4,178.8,871.4,178.8c0.1-0.1,0.1-0.1,0.1-0.1      c-0.3-0.8,0.8-2,0.8-2.1c0,0,0,0,0,0c0,0,0,0,0,0l-0.9-2.7c0,0,0,0,0,0c0,0,0,0,0,0c0,0,0,0,0,0c0,0,0,0,0,0c0,0,0,0,0,0      c0,0,0,0,0,0c0,0,0,0,0,0c0,0,0,0,0,0l0.9,2.6C871.9,176.8,871,177.9,871.4,178.8C871.3,178.8,871.3,178.8,871.4,178.8      C871.3,178.8,871.4,178.8,871.4,178.8z"></path>
				<path class="st4" d="M894.4,66.6c0-0.3-0.1-0.6-0.2-0.8c-0.1-0.2-0.3-0.5-0.6-0.6c-0.4-0.3-0.9-0.5-1.3-0.6l-0.1,0      c-1-0.3-2.1-0.7-2.8-1.6c-0.7-0.7-1.1-1.9-0.6-3c0.1-0.1,0.2-0.3,0.2-0.4c0.1-0.2,0.3-0.4,0.4-0.6c0.1-0.4,0.1-0.7,0-1.1      c-0.1-0.4-0.3-0.7-0.6-0.9c-0.5-0.4-1-0.8-1.6-1.1l-0.2-0.1c-0.6-0.3-1.2-0.7-1.6-1.3c-0.6-0.9-0.5-2.1-0.3-3.3      c0.2-1.5,0.5-3,1.6-3.8l-0.1-0.1c-1.2,0.8-1.5,2.4-1.7,3.9c-0.2,1.3-0.3,2.5,0.3,3.4c0.4,0.6,1,1,1.6,1.3l0.2,0.1      c0.6,0.3,1.1,0.6,1.5,1c0.2,0.2,0.4,0.5,0.5,0.8c0.1,0.3,0.1,0.7,0,1c-0.1,0.2-0.2,0.4-0.3,0.6c-0.1,0.1-0.2,0.3-0.3,0.4      c-0.6,1.1-0.1,2.4,0.6,3.2c0.8,0.9,1.9,1.3,2.9,1.6l0.1,0c0.5,0.1,0.9,0.3,1.3,0.6c0.2,0.1,0.4,0.3,0.5,0.5      c0.1,0.2,0.2,0.5,0.2,0.7L894.4,66.6z"></path>
				<path class="st5" d="M879.4,45.4c0,0-2.4,9.9-4.8,10.5c-2.4,0.6,7.9,4.1,9,3.5c0.5-0.3-0.2-3.7,0-6.4c0.1-1.7,0.5-3.5,1.2-5.1      L879.4,45.4z"></path>
				<path class="st14" d="M875.6,43.9c0.4,1,1.1,2.1,2.1,2.7c0.5,0.3,1.1,0.4,1.7,0.3c0.6-0.1,1.2-0.3,1.6-0.7      c1.1-0.9,1.6-2.3,1.8-3.7c0.1-0.6,0.1-1.2,0.1-1.8c0,0,0,0,0,0c0-0.2,0-0.4,0-0.6c0-0.4-0.2-0.7-0.4-1c-0.4-0.5-0.9-1-1.5-1.4      c-0.6-0.4-1.3-0.9-2-0.9c-0.7,0-1.4,0.3-2,0.7c-0.6,0.4-1,0.9-1.4,1.5c-0.3,0.6-0.6,1.2-0.6,1.9C875,41.8,875.2,42.9,875.6,43.9      z"></path>
				<path class="st5" d="M878.7,45.6c1.9,3.3,5.3,4.9,7.8,3.5c2.4-1.4,2.9-5.2,1.1-8.5c-1.9-3.3-5.4-4.9-7.8-3.5      C877.3,38.5,876.8,42.3,878.7,45.6z"></path>
				<path class="st14" d="M881.1,40.4c0,0-2.1,5.8-3.6,4.5c-1.5-1.3-0.6-5.9-0.5-6c0.1-0.1,1.7-0.8,1.7-0.8L881.1,40.4z"></path>
				<path class="st14" d="M877.7,39.7c0.7,1.9,8.6,4.1,11.4,0.6c0.9-1.2,1-2.9,0-4.1l-0.1-0.1c0.6-0.6,0.9-1.4,1-2.2      c0.1-0.7-0.1-1.4-0.4-2c-0.3-0.6-0.8-1.1-1.4-1.5c-0.6-0.4-1.4-0.6-2.1-0.6c-0.7,0-1.5,0.1-2.1,0.4c-1.4,0.7-2.7,1.7-3.6,2.9      C879.6,34,877.3,38.5,877.7,39.7z"></path>
				<path class="st5" d="M879.8,44.2c0,0-2.3-2.8-3.1-1c-0.8,1.8,2.8,3.7,3.1,3.2C880.1,46,879.8,44.2,879.8,44.2z"></path>
				<path class="st8" d="M877.8,44.4c0,0.1,0,0.2,0.1,0.3c0.1,0.1,0.2,0.2,0.3,0.2c0.1,0,0.2,0.1,0.3,0c0.1,0,0.2-0.1,0.3-0.2      c0.1-0.1,0.1-0.2,0.2-0.3s0-0.2,0-0.3c0-0.1-0.1-0.2-0.2-0.3c-0.1-0.1-0.2-0.1-0.3-0.1c-0.2,0-0.3,0.1-0.4,0.2      C877.8,44.1,877.8,44.3,877.8,44.4z"></path>
				<path class="st10" d="M883.6,49.8L883.6,49.8c-2-0.3-3.7-2.4-3.8-2.5c0-0.1-0.1-0.1-0.1-0.2s0-0.1,0.1-0.2c0,0,0.1-0.1,0.2-0.1      c0.1,0,0.1,0,0.2,0.1c0,0,1.7,2,3.5,2.3c0,0,0.1,0,0.1,0c0,0,0.1,0,0.1,0.1c0,0,0,0.1,0,0.1c0,0,0,0.1,0,0.1      c0,0.1,0,0.1-0.1,0.1C883.7,49.8,883.7,49.8,883.6,49.8z"></path>
				<path class="st6" d="M874.2,55.1c4.3-0.4,8.9,1.1,8.9,1.1s1.7,1,2.1,7.3c0.4,6.3,1.9,31.2,1.9,31.2s-6.1,2.9-11.7,3.6l-0.5-3.7      l-1,3.9c-4.6,0.2-11-3.2-11.3-3.6C862.6,94.8,869.9,55.5,874.2,55.1z"></path>
				<path class="st6" d="M877.8,50.5c0,0,0,2.7,2.4,3.3c2.4,0.6,4.2,1.6,3.7,3.9c-0.3,1.2-8.9,0.2-9.5-1.7      C873.9,54.1,877.8,50.5,877.8,50.5z"></path>
				<path class="st4" d="M891.5,68.2c-0.2,0.4,0.9,1.1,2.3,1.7c1.4,0.6,2.6,0.8,2.8,0.4c0.1-0.3-0.9-1.1-2.3-1.7      C892.9,68,891.7,67.8,891.5,68.2z"></path>
				<path class="st9" d="M897.8,65.6c0.1,0,0.3-0.1,0.4-0.1c0.7-0.2,0.9-0.7,1.1-1.2c0-0.1,0.1-0.2,0.1-0.3l-0.2-0.1      c0,0.1-0.1,0.2-0.1,0.3c-0.2,0.5-0.4,0.9-1,1.1c-0.3,0.1-0.6,0.2-0.8,0.1c-0.2-0.1-0.4-0.2-0.6-0.4c-1.1-1.1-2.3-1.6-4-1.7      c-1.3-0.1-2.7,0.1-3.9,0.5c-1,0.4-1.9,1-2.8,1.6c-0.5,0.3-1,0.7-1.5,1c-2.1,1.2-4.3,1.4-5.8,0.5c-1.1-0.7-1.9-2.1-1.9-3.7      c-0.1-1.2,0.3-2.6,1-4.2c0.5-1.1,1-2.1,1.7-3.1c0.2-0.3,0.5-0.7,0.7-1c0.5-0.7,1-1.5,1.4-2.3c0.5-0.9,1-2.4,0.7-3.8      c-0.4-1.8-1.9-3.1-3.1-4.1c-0.3-0.3-0.6-0.4-0.8-0.2l0.1,0.1c0.2-0.1,0.4,0.1,0.6,0.2c1.4,1.3,2.7,2.4,3,4      c0.3,1.4-0.2,2.8-0.7,3.7c-0.4,0.8-0.9,1.5-1.4,2.2c-0.2,0.3-0.5,0.7-0.7,1c-0.6,1-1.2,2-1.7,3.1c-0.7,1.7-1,3-1,4.3      c0.1,1.6,0.8,3.1,2,3.9c1.5,1,3.8,0.8,6-0.5c0.5-0.3,1-0.6,1.5-1c0.9-0.6,1.8-1.2,2.8-1.6c1.2-0.4,2.5-0.6,3.9-0.5      c1.7,0.1,2.9,0.6,3.9,1.6c0.2,0.2,0.4,0.4,0.6,0.5C897.4,65.6,897.6,65.6,897.8,65.6z"></path>
				<path class="st8" d="M894.3,65.2l3.7,0.8c0.1,0,0.3,0,0.4-0.1c0.1-0.1,0.2-0.2,0.3-0.3l3-6.7c0-0.1,0-0.1,0-0.2s0-0.1,0-0.2      c0-0.1-0.1-0.1-0.1-0.1c0,0-0.1-0.1-0.2-0.1l-3.7-0.8c-0.1,0-0.3,0-0.4,0.1c-0.1,0.1-0.2,0.2-0.3,0.3l-3,6.7c0,0.1,0,0.1,0,0.2      c0,0.1,0,0.1,0,0.2c0,0.1,0.1,0.1,0.1,0.1C894.2,65.2,894.2,65.2,894.3,65.2z"></path>
				<path class="st9" d="M894.6,65.3l3.7,0.8c0.1,0,0.3,0,0.4-0.1c0.1-0.1,0.2-0.2,0.3-0.3l3-6.7c0-0.1,0-0.1,0-0.2      c0-0.1,0-0.1,0-0.2c0-0.1-0.1-0.1-0.1-0.1c0,0-0.1-0.1-0.2-0.1l-3.7-0.8c-0.1,0-0.3,0-0.4,0.1c-0.1,0.1-0.2,0.2-0.3,0.3l-3,6.7      c0,0.1,0,0.1,0,0.2c0,0.1,0,0.1,0,0.2c0,0.1,0.1,0.1,0.1,0.1C894.5,65.2,894.6,65.3,894.6,65.3z"></path>
				<path class="st8" d="M898.7,60c0,0.1,0,0.1-0.1,0.2c0,0.1,0,0.1,0,0.2c0,0.1,0.1,0.2,0.2,0.3c0.1,0.1,0.2,0.1,0.4,0      c0.1,0,0.2-0.1,0.3-0.2c0-0.1,0.1-0.1,0.1-0.2c0-0.1,0-0.1,0-0.2c0-0.1,0-0.1-0.1-0.2c0-0.1-0.1-0.1-0.2-0.1      c-0.1,0-0.1,0-0.2-0.1c-0.1,0-0.1,0-0.2,0c-0.1,0-0.1,0.1-0.2,0.1C898.7,59.9,898.7,60,898.7,60z"></path>
				<path class="st5" d="M892.3,69c0.8-1.2,0.2-3,0.3-4.4c0.1-1.4,2-3.2,2.5-3.7c0.5-0.4,0.3,0,0.4,0.5c0.1,0.5-0.4,1.5-0.9,2.5      c-0.1,0.2-0.1,0.4-0.1,0.6c0,0.2,0.1,0.4,0.3,0.5c0.6-0.4,1.2-0.8,1.8-1.2c1.2-1,0.7-1.8,0.8-2.8s0.4-1.4,0.6-1.3      c0.2,0.4,0.3,0.8,0.4,1.2c0-0.1,0-0.1,0-0.2c0.1-0.9,0.4-1.4,0.6-1.3c0.2,0.4,0.3,0.8,0.4,1.3c0.2-0.4,0.4-0.6,0.5-0.4      c0.1,0.1,0.2,0.8,0.3,1.5c0.1-0.2,0.2-0.4,0.3-0.2c0.2,0.4,0,2.9-0.5,3.6c-0.7,1-3.3,3.3-4.2,3.9c-1.3,2.2-2.3,4.2-2.3,4.2      l-3.1-1.2C890.3,72.1,891.4,70.2,892.3,69z"></path>
				<path class="st6" d="M885.1,77.7l6.4-9.5c-0.2,0.4,0.9,1.1,2.3,1.7c1.4,0.6,2.6,0.8,2.8,0.4c0,0-8.1,21-13.6,21.3      c-6.1,0.3-10.7-14.8-11.4-22.7C870.3,56.3,881.3,51.6,885.1,77.7z"></path>
				<path class="st12" d="M885.1,77.9L885.1,77.9c-0.1,0-0.1,0-0.2-0.1c0,0-0.1-0.1-0.1-0.1c-0.3-1.4-0.6-2.6-0.8-3.7      c-1.6-7.1-2.3-10.1-5.3-13.6c0,0,0-0.1,0-0.1c0,0,0-0.1,0-0.1c0,0,0-0.1,0-0.1c0,0,0-0.1,0.1-0.1c0,0,0.1,0,0.1,0      c0,0,0.1,0,0.1,0c0,0,0.1,0,0.1,0c0,0,0.1,0,0.1,0.1c3.1,3.6,3.8,6.6,5.4,13.9c0.2,1,0.5,2,0.7,3.1l0.5-0.8      c0-0.1,0.1-0.1,0.2-0.1c0.1,0,0.1,0,0.2,0c0.1,0,0.1,0.1,0.1,0.2c0,0.1,0,0.1,0,0.2l-0.8,1.3c0,0-0.1,0.1-0.1,0.1      C885.2,77.9,885.2,77.9,885.1,77.9z"></path>
				<path class="st9" d="M876.5,63.2c-0.1-1.3,0.3-2.6,1-4.3c0.5-1.1,1-2.1,1.7-3.1c0.2-0.3,0.5-0.7,0.7-1c0.5-0.7,1-1.5,1.4-2.2      c0.5-0.9,1-2.3,0.7-3.7c-0.3-1.6-1.6-2.8-3-4c-0.1-0.1-0.4-0.3-0.6-0.2l-0.1-0.1c0.2-0.2,0.5-0.1,0.8,0.2c1.1,1,2.7,2.3,3.1,4.1      c0.3,1.4-0.2,2.9-0.7,3.8c-0.4,0.8-0.9,1.5-1.4,2.3c-0.2,0.3-0.5,0.7-0.7,1c-0.6,1-1.2,2-1.7,3.1c-0.7,1.6-1,3-1,4.2      c0.1,1.6,0.8,3,1.9,3.7c1.5,0.9,3.6,0.7,5.8-0.5c0.5-0.3,1-0.6,1.5-1c0.9-0.6,1.8-1.2,2.8-1.6c0.4-0.2,0.9-0.3,1.3-0.4v0.2      c-0.4,0.1-0.8,0.2-1.2,0.4c-1,0.4-1.9,0.9-2.8,1.6c-0.5,0.3-1,0.7-1.5,1c-2.2,1.3-4.4,1.5-6,0.5      C877.4,66.3,876.6,64.8,876.5,63.2z"></path>
				<path class="st12" d="M871.6,68.5c-0.1,0-0.1,0-0.2-0.1s-0.1-0.1-0.1-0.2c-0.7-5.4,2-8.4,2.1-8.5c0,0,0-0.1,0.1-0.1      c0,0,0.1,0,0.1,0c0,0,0.1,0,0.1,0c0,0,0.1,0,0.1,0.1c0,0,0,0.1,0.1,0.1c0,0,0,0.1,0,0.1c0,0,0,0.1,0,0.1c0,0,0,0.1-0.1,0.1      c0,0-2.6,2.9-2,8.1c0,0.1,0,0.1-0.1,0.2C871.7,68.5,871.6,68.5,871.6,68.5L871.6,68.5z"></path>
				<path class="st12" d="M878.9,89.5c-0.1,0-0.1,0-0.2-0.1c-4.1-3.5-6.7-16.4-6.8-17c0,0,0-0.1,0-0.1c0,0,0-0.1,0-0.1      c0,0,0,0,0.1-0.1c0,0,0.1,0,0.1,0s0.1,0,0.1,0c0,0,0.1,0,0.1,0s0,0,0.1,0.1c0,0,0,0.1,0,0.1c0,0.1,2.7,13.4,6.7,16.7      c0,0,0,0,0.1,0.1c0,0,0,0.1,0,0.1c0,0,0,0.1,0,0.1s0,0.1,0,0.1c0,0-0.1,0-0.1,0.1C879,89.4,878.9,89.5,878.9,89.5z"></path>
				<path class="st12" d="M882.7,91.6c-0.3,0-0.7,0-1-0.1c-0.1,0-0.1-0.1-0.1-0.1c0-0.1,0-0.1,0-0.2c0-0.1,0.1-0.1,0.1-0.1      c0.1,0,0.1,0,0.2,0c0.1,0,2.4,0.7,4.6-2c0,0,0.1-0.1,0.2-0.1c0.1,0,0.1,0,0.2,0.1c0,0,0.1,0.1,0.1,0.2c0,0.1,0,0.1,0,0.2      C885.3,91.3,883.7,91.6,882.7,91.6z"></path>
				<path class="st12" d="M870,64.5L870,64.5c-0.1,0-0.1,0-0.1,0c0,0,0,0-0.1-0.1c0,0,0-0.1,0-0.1c0,0,0-0.1,0-0.1      c0.1-0.2,1.3-5.3,4-8c0,0,0.1-0.1,0.2-0.1c0.1,0,0.1,0,0.2,0.1c0,0,0.1,0.1,0.1,0.2c0,0.1,0,0.1-0.1,0.2      c-2.7,2.7-3.9,7.7-3.9,7.8c0,0.1,0,0.1-0.1,0.1C870.1,64.5,870,64.5,870,64.5z"></path>
				<path class="st12" d="M869.3,56.1c-0.3,0-0.6,0-0.9-0.1c-0.4-0.1-0.8-0.3-1.2-0.6c-0.3-0.3-0.6-0.6-0.8-1c0-0.1,0-0.1,0-0.2      c0-0.1,0.1-0.1,0.1-0.1c0,0,0.1,0,0.1,0c0,0,0.1,0,0.1,0c0,0,0.1,0,0.1,0c0,0,0,0,0.1,0.1c0.4,0.7,1,1.2,1.7,1.4      c0.9,0.3,2.1,0,3.3-0.9c1.7-1.1,3.2-2.2,4.8-3.5c0,0,0.1-0.1,0.2-0.1c0.1,0,0.1,0,0.2,0.1c0,0,0.1,0.1,0.1,0.2      c0,0.1,0,0.1-0.1,0.2c-1.5,1.3-3.1,2.4-4.8,3.5C871.3,55.6,870.3,56,869.3,56.1z"></path>
				<path class="st13" d="M827.3,170.1c-0.1,0-0.3-0.1-0.4-0.2c-0.1-0.1-0.2-0.2-0.2-0.4c0-1.5,0.4-3,1.4-4.3c0.9-1.1,1.9-2.2,3-3.1      c1.3-1.2,2.7-2.2,4.2-3.1c0.1-0.1,0.3-0.1,0.4,0c0.1,0,0.1,0.1,0.2,0.1c0.1,0,0.1,0.1,0.1,0.2c0,0.1,0.1,0.1,0.1,0.2      c0,0.1,0,0.2,0,0.2c0,0.1-0.1,0.1-0.1,0.2c0,0.1-0.1,0.1-0.2,0.1c-1.4,0.9-2.8,1.9-4,3c-1,0.8-2,1.8-2.8,2.9      c-0.8,1-1.2,2.3-1.2,3.5c0,0.1,0,0.2,0,0.2c0,0.1-0.1,0.1-0.1,0.2s-0.1,0.1-0.2,0.1C827.5,170,827.4,170.1,827.3,170.1      L827.3,170.1z"></path>
				<path class="st13" d="M969.8,171.8c-0.1,0-0.2,0-0.3-0.1c-2.4-1.2-9-3.7-9.1-3.7c-0.1,0-0.1-0.1-0.2-0.1      c-0.1-0.1-0.1-0.1-0.1-0.2c0-0.1-0.1-0.1-0.1-0.2c0-0.1,0-0.2,0-0.2c0-0.1,0.1-0.1,0.1-0.2c0.1-0.1,0.1-0.1,0.2-0.1      c0.1,0,0.2,0,0.2,0c0.1,0,0.2,0,0.2,0.1c0.3,0.1,6.8,2.6,9.2,3.7c0.1,0.1,0.2,0.2,0.3,0.3c0.1,0.1,0.1,0.3,0,0.4      c0,0.1-0.1,0.2-0.2,0.3C970,171.8,969.9,171.8,969.8,171.8z"></path>
				<path class="st13" d="M976.5,152.4c-0.2,0-0.3,0-0.4-0.1c-0.1-0.1-0.2-0.2-0.2-0.4c0-0.2,0-0.3,0.1-0.4c0.1-0.1,0.2-0.2,0.4-0.2      c1.9-0.2,7.3-1.1,8.9-3.1c0-0.1,0.1-0.1,0.2-0.2c0.1,0,0.1-0.1,0.2-0.1c0.1,0,0.2,0,0.2,0c0.1,0,0.1,0.1,0.2,0.1      c0.1,0,0.1,0.1,0.1,0.2c0,0.1,0.1,0.1,0.1,0.2c0,0.1,0,0.2,0,0.2c0,0.1-0.1,0.1-0.1,0.2C984.1,151.6,976.9,152.3,976.5,152.4      L976.5,152.4z"></path>
				<path class="st0" d="M1044.2,75.4h-64.7c-0.3-0.3-0.6-0.5-0.9-0.8c-1.3-1.3-2.5-2.9-2.3-4.7c0.2-1.9,1.7-3.4,3.4-4.2      c2.5-1.1,5.9-0.7,7.3,1.6c-1.2-3.3,1.1-7.3,4.5-8.2c3.4-1,7.2,0.8,9,3.8c-0.3-2.3,0-4.6,0.8-6.7c0.8-2.1,2.1-4.1,3.8-5.6      c1.7-1.5,3.7-2.6,5.9-3.2c2.2-0.6,4.5-0.7,6.7-0.4c2.2,0.4,4.4,1.3,5.9,2.9c0.9,1.1,1.7,2.3,2.1,3.7c1.2,3.7,0.9,8.1-1.5,11.3      c1.1-1.1,2.5-1.9,4-2.5c1.5-0.5,3.1-0.8,4.6-0.7c2.2,0.2,4.4,1,5.5,2.9c0.4,0.8,0.7,1.6,0.8,2.5c0.1,0.9-0.1,1.8-0.4,2.6      c-0.6,1.5-1.6,2.8-2.9,3.8c0.8-0.6,1.7-0.9,2.7-1c1-0.1,2,0,2.9,0.4C1042.7,73.6,1043.6,74.4,1044.2,75.4z"></path>
				<path class="st0" d="M925.5,44.8c-1.2-1.6-0.5-4.2,1.2-5.2c1.8-1.1,4.1-0.5,5.7,0.8c-1.1-2.2-0.4-5.3,2.5-5.7      c2.2-0.3,4.4,1.7,4.3,3.9c-0.5-2.6-0.2-5.3,1-7.7c1.2-2.3,3.4-4.2,5.9-4.7c3.5-0.7,7.2,1.4,8.8,4.6c1.5,3.2,0.8,7.3-1.4,10      c1.6-2,3.8-3.9,6.4-3.8c2.6,0,5,2.9,3.8,5.2c-0.7,1.4-2.4,2-3.9,2.4L925.5,44.8z"></path>
				<path class="st9" d="M943.4,132.7c0,0,0.5,5.4,8.8,8.2c4.1,1.8,8,0,8,0l5.1-1l-0.3-2.1L943.4,132.7z"></path>
				<path class="st8" d="M956.3,123.1c0,0-3.7-5.3-7.5-1.3c-3.3,3.4,0.5,6.5,0.5,6.5l6.2,2.5L956.3,123.1z"></path>
				<path class="st15" d="M1191.1,174.3h3.2c1.4,0,2.1,1.9,1.7,4.3c-0.4,2.4-1.9,4.3-3.3,4.3h-0.1c-1.4,0-2.8-1.9-3.3-4.3      C1189,176.2,1189.8,174.3,1191.1,174.3z"></path>
				<path class="st16" d="M1389.3,174.3h3.2c1.4,0,2.1,1.9,1.7,4.3c-0.4,2.4-1.9,4.3-3.3,4.3h-0.1c-1.4,0-2.8-1.9-3.3-4.3      C1387.2,176.2,1388,174.3,1389.3,174.3z"></path>
				<path class="st17" d="M1185.8,86.1c69.2-6.2,139.9-6.2,212.1,0c1.8,0.2,3.3,1.5,3.3,3.4V174c0,0.9-0.3,1.7-0.9,2.4      c-0.6,0.6-1.5,1-2.3,1h-212.1c-0.9,0-1.7-0.4-2.3-1c-0.6-0.6-1-1.5-0.9-2.4V89.4C1182.5,87.6,1184,86.2,1185.8,86.1z"></path>
				<path class="st6" d="M1398.5,140.6h-213.4c-1.4,0-2.6,1.2-2.6,2.6v8.5c0,1.4,1.2,2.6,2.6,2.6h213.4c1.4,0,2.6-1.2,2.6-2.6v-8.5      C1401.2,141.8,1400,140.6,1398.5,140.6z"></path>
				<path class="st18" d="M1180.9,108c15.1,0,13.4,59.5,0,59.5c-7.6,0-18.8-25.4-18.8-37.5S1170.5,108,1180.9,108z"></path>
				<path class="st18" d="M1402.8,108c-15,0-13.4,59.5,0,59.5c7.6,0,18.8-25.4,18.8-37.5S1413.2,108,1402.8,108z"></path>
				<path class="st19" d="M1294.2,97.8c0.1,0.1,0.1,0.2,0.1,0.3c0,0.1,0,0.2-0.1,0.3l-1.8,1.8l1.8,1.8c0.1,0.1,0.1,0.2,0.1,0.3      c0,0.1-0.1,0.2-0.1,0.3c-0.1,0.1-0.2,0.1-0.3,0.1c-0.1,0-0.2,0-0.3-0.1l-1.8-1.8l-1.8,1.8c-0.1,0.1-0.2,0.1-0.3,0.1      c-0.1,0-0.2-0.1-0.3-0.1c-0.1-0.1-0.1-0.2-0.1-0.3c0-0.1,0-0.2,0.1-0.3l1.8-1.8l-1.8-1.8c-0.1-0.1-0.1-0.2-0.1-0.3      c0-0.1,0.1-0.2,0.1-0.3c0.1-0.1,0.2-0.1,0.3-0.1c0.1,0,0.2,0,0.3,0.1l1.8,1.8l1.8-1.8c0.1-0.1,0.2-0.1,0.3-0.1      C1294,97.7,1294.1,97.7,1294.2,97.8z"></path>
				<path class="st19" d="M1294.2,123.7c0.1,0.1,0.1,0.2,0.1,0.3c0,0.1,0,0.2-0.1,0.3l-1.8,1.8l1.8,1.8c0.1,0.1,0.1,0.2,0.1,0.3      c0,0.1-0.1,0.2-0.1,0.3c-0.1,0.1-0.2,0.1-0.3,0.1c-0.1,0-0.2,0-0.3-0.1l-1.8-1.8l-1.8,1.8c-0.1,0.1-0.2,0.1-0.3,0.1      c-0.1,0-0.2-0.1-0.3-0.1c-0.1-0.1-0.1-0.2-0.1-0.3c0-0.1,0-0.2,0.1-0.3l1.8-1.8l-1.8-1.8c-0.1-0.1-0.1-0.2-0.1-0.3      c0-0.1,0.1-0.2,0.1-0.3c0.1-0.1,0.2-0.1,0.3-0.1c0.1,0,0.2,0,0.3,0.1l1.8,1.8l1.8-1.8c0.1-0.1,0.2-0.1,0.3-0.1      C1294,123.5,1294.1,123.6,1294.2,123.7z"></path>
				<path class="st19" d="M1218.5,97.8c0.1,0.1,0.1,0.2,0.1,0.3c0,0.1,0,0.2-0.1,0.3l-1.8,1.8l1.8,1.8c0.1,0.1,0.1,0.2,0.1,0.3      c0,0.1-0.1,0.2-0.1,0.3c-0.1,0.1-0.2,0.1-0.3,0.1c-0.1,0-0.2,0-0.3-0.1l-1.8-1.8l-1.8,1.8c-0.1,0.1-0.2,0.1-0.3,0.1      c-0.1,0-0.2-0.1-0.3-0.1c-0.1-0.1-0.1-0.2-0.1-0.3c0-0.1,0-0.2,0.1-0.3l1.8-1.8l-1.8-1.8c-0.1-0.1-0.1-0.2-0.1-0.3      c0-0.1,0.1-0.2,0.1-0.3c0.1-0.1,0.2-0.1,0.3-0.1c0.1,0,0.2,0,0.3,0.1l1.8,1.8l1.8-1.8c0.1-0.1,0.2-0.1,0.3-0.1      C1218.4,97.7,1218.4,97.7,1218.5,97.8z"></path>
				<path class="st19" d="M1218.5,123.7c0.1,0.1,0.1,0.2,0.1,0.3c0,0.1,0,0.2-0.1,0.3l-1.8,1.8l1.8,1.8c0.1,0.1,0.1,0.2,0.1,0.3      c0,0.1-0.1,0.2-0.1,0.3c-0.1,0.1-0.2,0.1-0.3,0.1c-0.1,0-0.2,0-0.3-0.1l-1.8-1.8l-1.8,1.8c-0.1,0.1-0.2,0.1-0.3,0.1      c-0.1,0-0.2-0.1-0.3-0.1c-0.1-0.1-0.1-0.2-0.1-0.3c0-0.1,0-0.2,0.1-0.3l1.8-1.8l-1.8-1.8c-0.1-0.1-0.1-0.2-0.1-0.3      c0-0.1,0.1-0.2,0.1-0.3c0.1-0.1,0.2-0.1,0.3-0.1c0.1,0,0.2,0,0.3,0.1l1.8,1.8l1.8-1.8c0.1-0.1,0.2-0.1,0.3-0.1      C1218.4,123.5,1218.4,123.6,1218.5,123.7z"></path>
				<path class="st19" d="M1369.8,97.8c0.1,0.1,0.1,0.2,0.1,0.3c0,0.1,0,0.2-0.1,0.3l-1.8,1.8l1.8,1.8c0.1,0.1,0.1,0.2,0.1,0.3      c0,0.1-0.1,0.2-0.1,0.3c-0.1,0.1-0.2,0.1-0.3,0.1c-0.1,0-0.2,0-0.3-0.1l-1.8-1.8l-1.8,1.8c-0.1,0.1-0.2,0.1-0.3,0.1      c-0.1,0-0.2-0.1-0.3-0.1c-0.1-0.1-0.1-0.2-0.1-0.3c0-0.1,0-0.2,0.1-0.3l1.8-1.8l-1.8-1.8c-0.1-0.1-0.1-0.2-0.1-0.3      c0-0.1,0.1-0.2,0.1-0.3c0.1-0.1,0.2-0.1,0.3-0.1c0.1,0,0.2,0,0.3,0.1l1.8,1.8l1.8-1.8c0,0,0.1-0.1,0.1-0.1c0,0,0.1,0,0.2,0      c0.1,0,0.1,0,0.1,0C1369.8,97.7,1369.8,97.8,1369.8,97.8z"></path>
				<path class="st19" d="M1369.8,123.7c0.1,0.1,0.1,0.2,0.1,0.3c0,0.1,0,0.2-0.1,0.3l-1.8,1.8l1.8,1.8c0.1,0.1,0.1,0.2,0.1,0.3      c0,0.1-0.1,0.2-0.1,0.3c-0.1,0.1-0.2,0.1-0.3,0.1c-0.1,0-0.2,0-0.3-0.1l-1.8-1.8l-1.8,1.8c-0.1,0.1-0.2,0.1-0.3,0.1      c-0.1,0-0.2-0.1-0.3-0.1c-0.1-0.1-0.1-0.2-0.1-0.3c0-0.1,0-0.2,0.1-0.3l1.8-1.8l-1.8-1.8c-0.1-0.1-0.1-0.2-0.1-0.3      c0-0.1,0.1-0.2,0.1-0.3c0.1-0.1,0.2-0.1,0.3-0.1c0.1,0,0.2,0,0.3,0.1l1.8,1.8l1.8-1.8c0.1-0.1,0.2-0.1,0.3-0.1      C1369.7,123.5,1369.8,123.6,1369.8,123.7z"></path>
				<path class="st20" d="M1303.8,155.7l2.1,3.6L1303.8,155.7z"></path>
				<path class="st21" d="M1390.3,145.3c0,0-1.5-1.1,0.1,1.4c1.2,1.9,2.8,4.9,4.5,7.5c2.7,4.1,6.1,6.8,10.7,9c1,0.5,7.7,2.9,6-0.5      c-2.6-5.3-4.3-8.6-8.6-10.9C1400,150.1,1393.6,147.5,1390.3,145.3z"></path>
				<path class="st22" d="M1428.7,138c0,0,0.9-1.6,0.3,1.3c-0.4,2.2-0.8,5.6-1.3,8.8c-0.9,4.9-2.9,8.8-6,12.7      c-0.7,0.9-5.5,6-5.2,2.1c0.5-5.9,0.8-9.6,3.6-13.6C1422.2,146.5,1426.6,141.4,1428.7,138z"></path>
				<path class="st22" d="M1396.1,135.1c0,0-1-1.6,1.3,0.4c1.7,1.5,4.4,3.6,6.8,5.7c3.7,3.3,6,7,7.7,11.7c0.4,1.1,2.3,7.8-0.9,5.5      c-4.8-3.5-7.8-5.7-9.7-10.1C1400,145.1,1397.9,138.7,1396.1,135.1z"></path>
				<path class="st23" d="M1410.8,163.1c0,0.1,0,0.1,0,0.2c0,0.1-0.1,0.1-0.1,0.1c0,0-0.1,0-0.1,0c0,0-0.1,0-0.1,0c0,0-0.1,0-0.1,0      c0,0,0,0-0.1-0.1c-1-1.8-2.3-3.5-3.9-4.8c-1.8-1.5-3.7-2.7-5.8-3.8c-2.2-1.1-4-2.8-5.8-4.5c-1.2-1.2-2.6-2.3-4-3.3      c0,0-0.1-0.1-0.1-0.1c0-0.1,0-0.1,0-0.2c0,0,0,0,0.1-0.1c0,0,0.1,0,0.1,0c0,0,0.1,0,0.1,0c0,0,0.1,0,0.1,0c1.4,1,2.8,2.1,4,3.4      c1.7,1.6,3.5,3.3,5.7,4.4c2.1,1,4.1,2.3,5.9,3.8C1408.5,159.5,1409.9,161.1,1410.8,163.1z"></path>
				<path class="st23" d="M1398.4,138.3c0,0-0.1-0.1,0-0.2c0-0.1,0-0.1,0.1-0.1c0,0,0.1-0.1,0.2,0c0.1,0,0.1,0,0.1,0.1      c0.5,0.7,1.2,1.5,2,2.3c0.9,1,1.9,2.2,2.9,3.4c1.3,1.6,2.4,3.4,3.3,5.4c0.9,2.1,1.7,4.2,2.3,6.4c0,0,0,0.1,0,0.1      c0,0,0,0.1,0,0.1c0,0,0,0.1-0.1,0.1c0,0-0.1,0-0.1,0c0,0-0.1,0-0.1,0c0,0-0.1,0-0.1,0c0,0,0,0-0.1-0.1c0,0,0-0.1,0-0.1      c-0.6-2.2-1.3-4.3-2.2-6.3c-0.9-1.9-2-3.7-3.3-5.3c-0.9-1.2-1.9-2.3-2.9-3.3C1399.7,139.8,1399,139,1398.4,138.3z"></path>
				<path class="st23" d="M1427.4,140.8c0-0.1,0.1-0.1,0.1-0.1c0.1,0,0.1,0,0.2,0c0.1,0,0.1,0.1,0.1,0.1c0,0.1,0,0.1,0,0.2      c-1.4,3.1-2.7,5.5-4,7.7c-2.1,3.8-4.1,7.2-6,13.8c0,0,0,0.1,0,0.1c0,0,0,0-0.1,0.1c0,0-0.1,0-0.1,0c0,0-0.1,0-0.1,0      c0,0-0.1,0-0.1,0c0,0,0,0-0.1-0.1c0,0,0-0.1,0-0.1c0,0,0-0.1,0-0.1c1.9-6.6,3.9-10.1,6-13.9      C1424.7,146.2,1426,143.9,1427.4,140.8z"></path>
				<path class="st21" d="M1400.3,121.5c0,0-0.8-3.1,2,1.3c3.5,5.6,10.3,15.1,12.2,21.5c2.6,9.2,1.5,16.2,0.7,19.2      c-0.4,1.5-0.4,2.2-1.8,0.3c-6.2-8.5-8.4-15.4-9.5-23.8C1403,134,1401.6,128.2,1400.3,121.5z"></path>
				<path class="st23" d="M1402.2,125.8c0-0.1,0-0.1,0-0.2c0-0.1,0.1-0.1,0.1-0.1c0.1,0,0.1,0,0.2,0c0.1,0,0.1,0.1,0.1,0.1      c0.6,1.5,1.4,3.3,2.2,5.3c1,2.4,2.1,5,3.1,7.6c1.5,3.8,2.7,7.7,3.7,11.6c1,4.1,1.9,8.4,2.6,13.2c0,0.1,0,0.1,0,0.2      c0,0-0.1,0.1-0.1,0.1s-0.1,0-0.2,0c0,0-0.1-0.1-0.1-0.1c-0.8-4.8-1.6-9.1-2.6-13.2c-1-3.9-2.2-7.8-3.7-11.5      c-1-2.6-2.1-5.2-3.1-7.6C1403.5,129.1,1402.8,127.3,1402.2,125.8z"></path>
				<path class="st24" d="M1404.5,162.9h19.7c0.7,0,1.3,0.5,1.2,1.1c-0.7,4.5-1.4,9-3.2,13.1c-0.4,1-3.5,6.4-4.6,6.4h-6.4      c-1.1,0-4.2-5.4-4.6-6.4c-1.8-4.1-2.5-8.6-3.2-13.1C1403.2,163.4,1403.8,162.9,1404.5,162.9z"></path>
				<path class="st25" d="M1403.7,166.6h21.2c-0.1,0.4-0.1,0.8-0.2,1.2h-20.8C1403.8,167.4,1403.8,167,1403.7,166.6L1403.7,166.6z       M1424.4,169.5c-0.1,0.4-0.2,0.8-0.3,1.2h-19.7c-0.1-0.4-0.2-0.8-0.3-1.2H1424.4z M1422.7,175.8c-0.2,0.4-0.3,0.8-0.5,1.2h-15.7      c-0.2-0.4-0.3-0.8-0.5-1.2H1422.7z M1421.3,178.7c-0.2,0.4-0.5,0.8-0.7,1.2h-12.4c-0.3-0.4-0.5-0.8-0.7-1.2H1421.3z"></path>
				<path class="st26" d="M1262.5,70.7c5.2,5.8,8.4,13.6,12.8,21.3c4.3,7.6,5.5,9.7,6.1,12.4c0.6,2.7-10.6,12-15.7,9.8      s-5.6-11.6-5.8-17.3C1259.7,91.3,1262.5,70.7,1262.5,70.7z"></path>
				<path class="st27" d="M1257.9,116c3.7,1.2,7.5,6.6,14.9,17.1c6.3,9.1,7.5,11.7,7.6,15.1c0,1.2,0.2,7.5-4.4,11.3      c-3.8,3.2-8.6,2.7-11,2.5c-6.5-0.6-10.9-3.8-16.6-8.2c-5.9-4.5-9.5-9.1-16.7-18.2c-6.2-7.8-6.7-9.5-6.2-11.2      c1.1-3.8,7.1-5,16.5-7C1250.1,115.7,1254.3,114.8,1257.9,116z"></path>
				<path class="st28" d="M1255.5,120.4c0.3,2-6.5,2.6-7.4,6.8c-1.2,5.7,9.1,11.3,14.7,20.5c1.9,3.2,3.8,11.1-1.3,16.5      c-3.1,3.3-8.1,3.2-11.7,3.1c-12.8-0.5-21.7-8.5-31.5-17.5c-7.6-7-9.7-10.9-9.6-14.9c0.1-3.7,2.1-7,2.4-7.4      c1.7-2.7,4.1-4.8,6.9-6.2c4.3-2.3,8.3-2.6,13.3-2.7C1244.6,118.1,1255.1,117.9,1255.5,120.4z"></path>
				<path class="st26" d="M1227.2,69.3c-3.6,0-6.6,0-8.7,1.4c-2.2,1.5-4.2,3-6,5.9s-2.3,36.7,0.9,40.2c3.3,3.5,44.6,6.8,46.3,3.5      c1.7-3.3,7.1-47.1,2.8-49.6s-7.2-2.7-10.1-2.6C1249.8,68.2,1227.2,69.3,1227.2,69.3z"></path>
				<path class="st5" d="M1237.9,68.2c-5,0.5-10.7,1.2-10.7,1.2s0,4.4,5.7,9.1c5.5,4.4,9.5,4.5,11.2,4.2c2.9-0.5,6.1-2.7,8.4-6.4      c2.3-3.8,2.1-7.9,1.7-8C1254,68,1237.9,68.2,1237.9,68.2z"></path>
				<path class="st29" d="M1263.9,160.3c-1.2,1.6-2.9,3.1-4.7,3.9c-3.4,1.5-10.2,0.9-12.6-2c-2.4-2.9-2.3-5-3.7-6.3      c-3.6-3.2-20.6-15.5-22.2-17.1s-8.1-9.4-6.4-15.3c-1.2,1.1-2.3,2.3-3.2,3.7c-0.3,0.5-2.3,3.8-2.4,7.4c-0.1,4,1.9,7.9,9.6,14.9      c9.8,9,18.7,17.1,31.5,17.5c3.6,0.1,8.6,0.2,11.7-3.1C1262.5,163,1263.3,161.7,1263.9,160.3z"></path>
				<path class="st8" d="M1214.5,112.9c-1.9-1-6.1,7.3-10.5,6.2c-3.6-0.9-4.3-7.3-6.2-7.1c-1.4,0.2-2.2,3.7-2.3,6      c-0.2,3.5,0.9,10,5.7,11.8c3.8,1.4,7.6-1.1,8.2-1.5C1215.7,124,1216.4,113.9,1214.5,112.9z"></path>
				<path class="st30" d="M1262.5,70.7c-0.9-0.5-1.8-1-2.7-1.4c-0.4,2.2-0.4,6.2-2.1,11.5c-1.5,4.6-3,9.1-6.9,11.2      c-3.8,1.9-6-0.3-10.9,2c-3.6,1.7-3.1,3.2-6.4,4.8c-5.7,2.7-9.4-0.7-13.2,1.2c-4.7,2.4-6.3,11.7-4.3,18c9.8,3,42.2,5.2,43.7,2.3      C1261.4,117.1,1266.8,73.3,1262.5,70.7z"></path>
				<path class="st4" d="M1223.5,90c-0.5,2.7-1.1,3.6-1.8,7.8c-0.4,2.4-0.4,4.9-0.1,7.3c1.2,8.4,7.2,13,6.5,13.8      c-0.7,0.8-8.3-2.3-12.7-9.2C1207.5,97.2,1224.5,84.4,1223.5,90z"></path>
				<path class="st8" d="M1212,118.2c-0.5,6.8-0.1,9.8-1,11.5c-0.9,1.7-3.9,3.8-3.9,5.7c0,1.9,0.9,10.9,2.1,12.1      c1.2,1.2,1.9,1.5,2.7,1.5c0.9,0-0.4-5.6,0-8.5s4-6.2,6-8c2-1.7,4.4-8.8,1.6-11.1C1216.7,119.1,1212,118.2,1212,118.2z"></path>
				<path class="st9" d="M1275,80.6c-0.8,0.4-1.8,0.5-2.7,0.5c-1.8,0-2.3-0.6-3.8-0.9c-1.7-0.2-3.4,0-4.9,0.8      c-2.4,1.2-3.6,3.3-4.3,4.6c-1.9,3.5-1.2,4.6-2.8,7c-3,4.6-11.5,8.4-15.7,8.3c-7.6-0.2-11.5,1.4-15.3,2.6      c-4.7,1.5-9.4,2.9-11.7,7.2c-2.1,3.9-2.3,10.2,0.2,14.7c1.1,2.1,2.7,3.6,2.5,6c-0.1,1.2-0.5,1.4-1.8,4.9      c-0.9,2.4-1.4,3.6-1.4,4.5c-0.1,1.5,0.6,3.2,2,6.3c2,4.6,3,5.5,3.4,5.8c1.6,1.3,4,2.4,4.7,1.7c0.6-0.6-0.6-2-1.8-4.9      c-1-2.3-3.4-8.1-0.9-12.1c0.5-0.8,1.1-1.4,1.8-1.9c2.4-1.7,4.4-0.6,7.4-1.3c4.1-0.9,6.1-4.2,7.8-8.4c0,0,12.6,2.9,20.6-0.6      c9.2-4.1,10.8-12.5,10.2-16.1c-0.6-3.8-1.6-3.9-1.5-8.6c0-0.7,0.3-3.7,2.3-5c1.3-0.8,1.7-0.3,3.6-1.3c0.9-0.5,2.6-1.5,3.3-3.3      c0.3-0.6,0.3-1,0.7-1.6c0.6-0.8,1.1-0.9,2-1.6c1-0.7,1.7-1.7,2.1-2.8c0.3-0.8,0.3-1.6,0.2-2.4c-0.1-0.7-0.2-1.3-0.6-1.9      c-0.3-0.6-0.8-1.1-1.3-1.5C1278.3,78.6,1276.4,79.9,1275,80.6z"></path>
				<path class="st8" d="M1281,82.7c-0.1-0.7-0.3-1.3-0.6-1.9c-0.3-0.6-0.8-1.1-1.3-1.5c0,0,0,0-0.1,0c0.2,0.3,0.3,0.7,0.3,1.1      c-0.1,1.7-2.7,2.9-2.9,3c-0.7,0.3-0.8,0.2-1.1,0.5c-0.8,0.8-0.3,2.1-0.4,3.8c0,0.5-0.2,2.9-1.7,4.5c-1.5,1.6-4.1,2.1-6.1,1.5      c-2.1-0.6-2.7-2.2-3.8-1.9c-1.2,0.3-1.6,2.8-1.8,4.7c-1,9,0.2,10.6-0.9,13.7c-1.4,4.1-5.6,7.2-9.5,8.1c-7,1.6-13.3-4.2-14.8-2.2      c-0.4,0.6,0,1.1,0.7,4.6c0.3,1.8,0.5,3.6,0.6,5.4c1.5,0.3,13,2.7,20.4-0.7c9.2-4.1,10.8-12.5,10.2-16.1      c-0.6-3.8-1.6-3.9-1.5-8.6c0-0.7,0.3-3.7,2.3-5c1.3-0.8,1.7-0.3,3.6-1.3c0.9-0.5,2.6-1.5,3.3-3.3c0.3-0.6,0.3-1,0.7-1.6      c0.6-0.8,1.1-0.9,2-1.6c1-0.7,1.7-1.7,2.1-2.8C1281.1,84.3,1281.1,83.5,1281,82.7z"></path>
				<path class="st31" d="M1266.8,84.2c1.2,3.4,4.8,5.8,5.3,6.4c0.8,1.1-0.5,3.1-1.6,3.8c-1.3,0.8-5.6,2.1-8,0.4      S1266.8,84.2,1266.8,84.2z"></path>
				<path class="st8" d="M1261.5,85.2c-0.9,7.7-0.3,8.9,1,9.7c1.3,0.8,5.7,0.4,7.1-0.7c1.4-1.2,2.3-2.4,1.6-3.3      c-0.7-0.9-4.7-3.1-4.1-6.9C1267.1,83.4,1261.6,84.3,1261.5,85.2z"></path>
				<path class="st8" d="M1236,129.3c-1,1-2.4,2.7-4.9,3c-4.6,0.6-7.2-4.1-10.1-2.7c-0.9,0.4-1.7,2.1-3.3,5.5      c-1.1,2.4-1.6,3.5-1.7,4.6c0,1.6,0.6,3.3,2,6.6c0.9,2.1,1.2,2.6,0.9,3c-0.4,0.6-1.4,0.5-2.7,0.3c1.3,2.5,2,3.1,2.3,3.4      c1.6,1.3,4,2.4,4.7,1.7c0.6-0.6-0.6-2-1.8-4.9c-1-2.3-3.4-8.1-0.9-12.1c0.5-0.8,1.1-1.4,1.8-1.9c2.4-1.7,4.4-0.6,7.4-1.3      C1232.7,133.9,1234.6,131.9,1236,129.3z"></path>
				<path class="st32" d="M1277,79.6c0.6,1.2,2.3,1.5,2.7,0.5c0.4-0.9-1.2-1.1-1.7-1C1277.7,79.2,1277.4,79.4,1277,79.6z"></path>
				<path class="st8" d="M1216.4,111.5c0.9-1.5,2.3-2.6,3.9-3.2c3.2-1,7.2,0.3,7.6,2.1c0.3,1.3-1.4,1.9-1.1,3.4      c0.3,1.8,2.8,1.7,3.9,3.9c0.4,0.8,0.5,1.7,0.5,2.6s-0.4,1.7-0.9,2.5c-2.1,2.8-7.3,2.4-8.8,0.4c-1.1-1.5,0.1-3.3-1.2-4.5      c-1.2-1.1-2.8,0-4-1.1C1214.8,116.4,1215.3,113.4,1216.4,111.5z"></path>
				<path class="st8" d="M1228.7,112.6c-0.2-0.6,0.7-1.7,1.6-1.6c0.7,0,1.4,0.7,1.3,1.3s-0.9,0.8-1.4,0.9      C1229.8,113.3,1228.9,113.1,1228.7,112.6z"></path>
				<path class="st8" d="M1231.6,115.7c0.2,0,0.3,0,0.5,0.1c0.1,0.1,0.2,0.2,0.3,0.4c0,0.4-0.8,0.7-1,0.5c-0.1-0.1-0.1-0.2-0.1-0.3      c0-0.1,0-0.2,0-0.3c0-0.1,0.1-0.2,0.1-0.3C1231.4,115.8,1231.5,115.7,1231.6,115.7z"></path>
				<path class="st33" d="M1216.9,120.4c0-0.1,0.1-0.3,0.1-0.4c0.1-0.1,0.2-0.2,0.3-0.3c0.1-0.1,0.2-0.2,0.4-0.2c0.1,0,0.3,0,0.4,0      c0.3,0,0.5,0.2,0.6,0.4c0.2,0.2,0.3,0.4,0.3,0.7c-0.1,0.6-0.8,1-1.4,0.8c-0.2,0-0.4-0.2-0.5-0.3      C1217,120.8,1216.9,120.6,1216.9,120.4z"></path>
				<path class="st33" d="M1219.6,112.4c0.2-0.5,0.8-0.7,1.1-0.6c0.4,0.3,0.2,1.7-0.2,1.8C1220.1,113.7,1219.3,113,1219.6,112.4z"></path>
				<path class="st33" d="M1225.2,116.5c0.3,0,0.6,0.2,0.8,0.4c0.2,0.2,0.3,0.5,0.4,0.8c0,0.3-0.1,0.6-0.2,0.8      c-0.2,0.2-0.4,0.4-0.7,0.5c-0.2,0-0.4,0-0.6-0.1c-0.2-0.1-0.4-0.2-0.5-0.3c-0.1-0.1-0.3-0.3-0.3-0.5c-0.1-0.2-0.1-0.4-0.1-0.6      c0.1-0.3,0.3-0.5,0.5-0.7C1224.6,116.5,1224.9,116.4,1225.2,116.5z"></path>
				<path class="st32" d="M1270.8,85c0-0.1,0-0.2-0.1-0.3c-0.1-0.1-0.1-0.2-0.2-0.2c-0.1,0-0.2-0.1-0.3,0c-0.1,0-0.2,0.1-0.3,0.1      s-0.1,0.2-0.1,0.3c0,0.1,0,0.2,0,0.3c0,0.1,0.1,0.2,0.2,0.2c0.1,0.1,0.2,0.1,0.3,0.1c0.1,0,0.3-0.1,0.4-0.2      C1270.8,85.3,1270.8,85.1,1270.8,85z"></path>
				<path class="st5" d="M1235.4,59.4c0.6,3.7,0.8,7.5,0.5,8.4c-0.3,0.9-2.9,1.1-3,1.6c-0.1,0.4,2.4,4.5,6.3,4.4c4,0,6.3-3,6.3-4.6      c0-0.9-3.6-0.6-3.8-1.6c-0.2-1.1-0.1-1.8-0.1-3.6S1235.4,59.4,1235.4,59.4z"></path>
				<path class="st5" d="M1232,127.6c1.5,1.6,2.4,2.6,4.2,3.1c1.8,0.5,4-0.3,4.5-1.4c0.5-1.1,0-2.6-0.3-2.7c-1-0.3-2.8,1.4-3.7,0.6      c-0.9-0.8-1.2-1.4-0.7-1.4c0.5,0,2.2,0.5,2.4,0.2c0.2-0.4-0.6-1.3-1.3-1.4c-0.7-0.2-2.4,0.4-2.8,0.4c-0.4,0-3.3-1.8-3.6-1.2      c-0.3,0.6-1.5,3.2-1.1,3.3C1230.1,127,1231.8,127.3,1232,127.6z"></path>
				<path class="st26" d="M1226.6,129.7c2.9,1.8,5.5-0.1,6.4-1.2c0.9-1.1,1.7-4,0.9-5s-2.3-2.2-2.6-2.1      C1230.9,121.5,1226.6,129.7,1226.6,129.7z"></path>
				<path class="st5" d="M1247.7,106.3c-2.1-0.8-3.7-1-4.8-2.5c-1.2-1.5-1.9-4-1-5c0.8-0.9,1.9-0.8,2.1-0.5c0.7,0.8,1.3,3.3,2.4,3.8      c1.1,0.5,1.6,0.3,1.4-0.2c-0.2-0.5-1.4-1.8-1.1-2.1c0.3-0.3,1.4,0.1,1.9,0.6c0.4,0.6,0.6,2.3,0.8,2.7c0.2,0.4,3,2.3,2.6,2.8      c-0.4,0.5-2.3,2.8-2.6,2.3C1249,107.7,1248,106.4,1247.7,106.3z"></path>
				<path class="st5" d="M1248.2,54.2c0.4,0.9-0.2,2.5-1.4,5.6c-1,2.6-2.5,5.1-4.9,5.3c-0.5,0.1-1.7-0.4-4.6-2.8      c-2.1-1.8-1-3.8-2.1-4c-1.7-0.3-1.9-3.2-1.1-4.5C1236.7,49.7,1246.8,50.8,1248.2,54.2z"></path>
				<path class="st26" d="M1248.2,110.8c-1.4-2.5-0.8-4.1-0.1-4.9c0.7-0.7,2.5-2.2,3.2-2.5c1.4-0.6,3.2,0.3,3.5,1      C1255.1,105.1,1248.2,110.8,1248.2,110.8z"></path>
				<path class="st7" d="M1237.9,57.1c0.1,0,0-1.5,0.9-2.2c0.3-0.3,0.7-0.4,1.1-0.4c0.3,0,0.4,0.1,1.2,0.7c0.3,0.3,0.7,0.5,1.1,0.6      c0.3,0,0.6,0,0.9-0.1c0.3-0.1,0.6-0.3,0.8-0.5c0.4-0.5,0.3-0.8,0.8-1.1c0.3-0.2,0.7-0.3,1.1-0.2c0.3,0.1,0.5,0.2,0.7,0.4      c0.2,0.2,0.4,0.4,0.5,0.6c0.3,0.5,0.2,0.6,0.4,0.9c0.6,0.7,1.7,0.6,1.9,0.5c0.4,0,0.7-0.1,1-0.3c0.3-0.2,0.6-0.4,0.8-0.7      c0.2-0.3,0.3-0.6,0.3-0.9c0-0.3,0-0.7-0.1-1c-0.2-0.5-0.6-0.5-0.7-1c0-0.2,0-0.4,0-0.6c0-0.2,0.1-0.4,0.3-0.5      c0.4-0.4,0.8-0.2,1.4-0.5c0.5-0.3,0.8-0.8,0.9-1.4c0.2-0.6,0.1-1.2-0.1-1.8c-0.3-0.6-0.9-1.1-1.6-1.3c-0.8-0.3-1.7-0.3-2.6-0.1      c-0.8,0.3-0.9,0.7-1.6,0.8c-0.6,0-1.2-0.3-1.7-0.7c-0.8-0.8-0.4-1.6-1.2-2.5c-0.5-0.5-1.2-0.8-1.9-0.9c-0.9-0.2-1.9-0.1-2.8,0.4      c-0.2,0.1-1.3,0.8-1.4,1.8c0,0.3,0.1,0.4,0,0.7c-0.2,0.5-1.1,0.8-1.7,0.7c-0.6-0.1-0.6-0.5-1.3-0.7c-1.2-0.5-2.6,0.2-2.9,0.3      c-0.8,0.4-1.4,1-1.8,1.8c-0.3,0.6-0.5,1.3-0.4,2c0.1,1,0.5,1.9,1.2,2.6c0.5,0.5,1,0.6,1.1,1.1c0,0.2,0,0.5-0.1,0.7      c-0.1,0.2-0.2,0.4-0.3,0.6c-0.6,0.7-1.2,0.3-1.9,0.8c-0.9,0.6-1,2-0.9,3c0.3,1.4,1.4,2.2,2,2.6c1,0.7,3.5,1.9,4.5,1.1      c0.2-0.2,0.3-4,0.1-4.2c-0.3-0.2-0.7,0-1.2-0.2c-0.6-0.3-0.6-1.1-0.6-1.3c0-0.3,0-0.7,0.2-1c0.1-0.3,0.4-0.6,0.7-0.8      c0.2-0.1,0.4-0.2,0.6-0.3c0.2-0.1,0.5-0.1,0.7,0c0.2,0,0.5,0.1,0.7,0.3c0.2,0.1,0.4,0.3,0.5,0.5      C1237.9,55.9,1237.2,57.3,1237.9,57.1z"></path>
				<path class="st26" d="M1215.4,74.3c-1.8,0-5.2,5.1-9,14.2c-3.2,7.6-5.9,14.5-4,21.9c0.7,2.5,2.1,4.8,4.2,6.4      c3.3,2.5,3.2,3.1,11.7,8.6c4.8,3.1,6.9,4.9,9.6,4.2c1.2-0.4,2.2-1.1,2.9-2.2c1.6-2.5,0.7-6-0.3-7.2c-4.6-5.6-8.7-7-11.1-13.9      c-0.8-2.2-1-4.6-0.5-6.9c0.8-3.5,2.7-4.6,3.9-6.9C1225.9,86,1220,74.3,1215.4,74.3z"></path>
				<path class="st26" d="M1248.1,110.2c0,0.6,0.1,1.8,4.7,5.4c5.3,4.3,17.1,5.2,20.5,4.8c10-1.4,9.5-15.4,7.4-17.2      c0,0-1.2-0.6-11,1.4c-3,0.6-13.1,0.1-15-0.2C1251.2,104,1248.3,107.5,1248.1,110.2z"></path>
				<path class="st30" d="M1280.4,101.5c1.2,3.4-6.2,4.6-9,3.9c-1.1-0.3-4.6-0.6-4.6-0.6s-0.1-5.5,5.5-4.3      C1277.8,101.7,1280.4,101.5,1280.4,101.5z"></path>
				<path class="st8" d="M1276.5,99c-1.2-0.4-5.2-2.5-7.2-1.7c-1.6,0.6-6.4,5.1-8.8,7.5c2.3,0,7.5,0.5,9.7,0.5      c0.2-0.6,0.2-1.2,0.2-1.8c-0.2-0.9,4.4-0.9,6.3-0.8c1.9,0.1,5-0.6,5.3-1.8C1282.2,99.4,1277.7,99.4,1276.5,99z"></path>
				<path class="st30" d="M1280.9,103.3c0,3.5-0.6,7.4-3.4,10c-5.7,5.4-19,4.4-22.7-1.2c-1.2-1.8-1.1-3.6-2.8-4.4      c-1-0.4-2.1-0.4-3.1-0.1c-0.5,0.8-0.7,1.6-0.8,2.5c0,0.6,0.1,1.8,4.6,5.4c5.3,4.3,17.1,5.2,20.5,4.8      C1283,119,1282.8,105.8,1280.9,103.3z"></path>
				<path class="st30" d="M1219.5,106.3c-0.8-2.2-1-4.6-0.5-6.9c0.8-3.5,2.7-4.6,3.9-6.9c2.2-4.5-0.1-11.6-3.2-15.4      c1.1,3.3,1.3,6.9,0.8,10.3c-0.4,2.3-1.6,10.3-7.3,13.6c-1.5,0.9-3.2,1.3-3.3,2.4c-0.2,1.5,2.5,3,5,4.5c8.3,5,10.6,8.2,12.4,8.8      C1224,113.5,1221.2,111.4,1219.5,106.3z"></path>
				<path class="st34" d="M1353.2,111.7c-0.2,1.6,2.5,1.9,6.3,6.8c2.1,2.7,3.7,5.8,4.7,9c0.9,2.9,4.1,11.7,3.1,12.8      c-0.5,0.6-1.2,0.3-2.5,1.3c-0.3,0.2-1.4,1.1-1.2,1.6c0.1,0.3,0.9,0.3,4.3,0c2.1-0.2,3.1-0.3,3.3-0.4c1.8-1.1,1-4.9,0.3-12      c-0.7-6.6-1.1-9.9-1.2-14c-0.2-5.2,0.2-6.1-0.8-7.3C1366,105.2,1353.6,108.3,1353.2,111.7z"></path>
				<path class="st34" d="M1332.7,112.7c0.2,2.5-1.4,3-3.3,8.4c-1.2,3.4-0.7,3.5-1.8,6.5c-1,2.6-2.5,5.1-4.2,7.3      c-3.5,4.5-5.6,4.9-6.1,5c-0.8,0.1-1.6,0-2.3-0.2c-1.5-0.5-2.8-1.8-2.6-2.4c0.2-0.5,1.1-0.2,2.7-0.8c0.8-0.3,1.5-0.7,2.2-1.2      c1.6-1.1,2.2-3.3,3.2-9.5c0.7-4,1-6,1.2-7.5c0.3-3.4,0.1-4.3,0.7-6.3c0.5-1.6,1.6-5.2,3.9-5.7      C1328.9,105.8,1332.4,109.3,1332.7,112.7z"></path>
				<path class="st35" d="M1313.6,93.6c-0.9-0.5-1.9-0.7-3-0.7c-0.9,0-1.6,0.3-4.9,2.2c-2.7,1.5-2.8,1.6-3.4,1.7      c-1.7,0.4-3.2-0.1-4.6-0.5c-1.8-0.5-2.6-0.8-2.8-1.4c-0.3-1.2,2.6-2,4.7-5.1c1.8-2.7,0.8-3.9,2.9-7.1c0.8-1.2,1.8-2.8,3.6-3.7      c3.3-1.8,7.2-0.2,10.5,1.1c5.1,2.1,6.5,4.1,11.2,7c1.3,0.8,6.2,3.8,12,5.4c7.4,2,15.4,1.6,24.5,1c2.9-0.2,7.5-0.5,10.8,2.3      c1.5,1.3,1.4,2,3,3.1c3,2.1,7.8,2.6,11.2,0.5c2.3-1.4,3.4-3.8,4.4-5.9c1.5-3.4,1.6-6.1,2.4-6.1c0.7,0,1.3,1.8,1.6,2.8      c0.8,3.3-0.2,7-2.4,9.8c-0.7,0.8-2.3,2.8-5.1,3.7c-3.9,1.2-6.6-1-8.5,0.7c-1,0.9-1.1,2.1-1.2,4c-0.1,1-0.4,6.4,3.1,9.2      c2.2,1.7,2.8,1.6,4.2,3.3c1.4,1.7,1.1,2.3,1.6,6.6c0.3,2.9,0.9,2.9,2.1,8.9c0.7,3.4,0.7,4.6,0,5.6c-0.9,1.2-2.6,1.6-4,1.9      c-1.3,0.3-2.3,0.5-2.8,0c-0.7-0.8,0.5-2.3,1.2-5c0.1-0.4-3.4-10.5-5.1-12.1c-1.8-1.7-2.5-3.3-5.7-5c-4-2.1-6.7-1.6-8.5-2.4      c-5.9-2.7-5.6-6.2-9.1-5.7c-1.5,0.2-2.8,0.8-5.4,1.7c-3.1,1.2-5.9,1.1-9.3,0.9c-5.5-0.3-6.8-1.4-7.8-0.4      c-0.9,0.9-0.5,2.2,0.9,9.1c2,10.4,0.6,4.7,1.6,9.8c0.4,1.8,0.9,4.1,0,6.6c-0.3,1-0.8,1.9-1.6,2.6c-2.3,1.9-6.4,1-6.6,0      c-0.2-0.8,2.3-1.1,3.5-3.3c0.9-1.7,0.6-3.6,0-5.8c-1.3-5-3.2-9.8-5.6-14.3c-2.8-5.1-2.9-4.3-4.4-7.5c-1.4-3.2-1.3-4-3.9-11      C1317.1,97.2,1316,94.8,1313.6,93.6z"></path>
				<path class="st9" d="M1377.2,113.5c-0.7-1.6-0.4-3.1-0.1-5c0.3-1.9,0.7-4.4,2.2-5c0.8-0.3,1.8,0.1,2.6,0.6      c-0.1,0.1-0.2,0.1-0.3,0.2c-1,0.9-1.1,2.1-1.2,4c-0.1,1-0.4,6.4,3.1,9.2c2.2,1.7,2.8,1.6,4.2,3.3c0.3,0.4,0.6,0.8,0.8,1.2      c-0.3,1.8-0.8,3.8-2.3,4.3c-0.6,0.2-1.3,0.2-1.9,0c-0.6-0.2-1.2-0.6-1.6-1.1c-0.6-0.9-0.2-1.5-0.4-3.4c-0.2-1.3-0.5-2.5-1-3.7      C1379.9,115.4,1378.2,115.8,1377.2,113.5z"></path>
				<path class="st9" d="M1360.2,98.6c-0.1,0.5-3-0.5-6.1,1.2c-2.3,1.2-2.1,2.3-4.4,3.4c-0.8,0.4-3.9,1.6-6.1,0.3      c-1.3-0.7-0.9-1.5-2.2-2.5c-2.6-2.1-6-0.7-6.4-1.7c-0.3-0.9,1.6-2.9,4-3.9c1.9-0.9,4.2-1.2,10.3,0      C1354.5,96.3,1360.3,97.9,1360.2,98.6z"></path>
				<path class="st9" d="M1339.9,92.5c7.4,2,15.4,1.6,24.5,1c1.6-0.1,3.3-0.1,4.9,0c0.7,0.6,1.1,1.3,1.4,2.1c0.1,0.6,0.1,1.1,0,1.7      c-0.1,0.6-0.3,1.1-0.7,1.6c-2.2,3.1-8.8,1.6-10.7,1.2c-5-1.1-4.9-2.8-9.1-3.3c-1.3-0.2-5.2-0.6-9.3,1.2      c-2.9,1.3-3.4,2.7-5.9,2.9c-1.9,0.1-4.4-0.5-5.7-2.4c-1.4-1.9,0-3.2-1.4-5.8c-1.2-2.1-3.3-3.3-4.1-3.8c-2.1-1.2-2.9-0.8-3.7-1.7      c-1-1.1-0.9-3.5-0.2-5.6c2.7,1.5,4.4,3.2,7.9,5.4C1329.2,87.9,1334.1,90.9,1339.9,92.5z"></path>
				<path class="st9" d="M1311.2,90.3c-1.5-1.3-2.4-2-2.9-3.4c-0.6-1.7-0.9-4.7,0.9-5.9c0.7-0.4,1.5-0.6,2.3-0.5      c0.8,0.1,1.6,0.4,2.2,0.9c1.3,1.2,0.2,2.6,1.4,6.5c0.4,1.3,0.9,2.5,1.6,3.7c1,1.7,1.6,2.2,1.4,2.5      C1317.7,94.6,1314.1,92.8,1311.2,90.3z"></path>
				<path class="st9" d="M1301,89.8c-0.3-0.2-0.6-0.4-0.9-0.7c1.3-2.2,0.6-3.5,2.5-6.4c0.1-0.2,0.3-0.4,0.4-0.6      c0.7,0.3,1.4,0.7,1.9,1.3c0.9,1,1.5,2.6,1,4.2c-0.2,0.7-0.7,1.4-1.3,1.8c-0.5,0.4-1.1,0.6-1.8,0.7      C1302.3,90.2,1301.6,90.1,1301,89.8z"></path>
				<path class="st36" d="M1297.9,91.9c0.2,0.3,0.5,0.6,0.6,1c0.5,1.2,0.6,2.5,0.2,3.7c-0.3-0.1-0.6-0.2-0.9-0.3      c-1.8-0.5-2.6-0.8-2.8-1.4C1294.8,94,1296.3,93.3,1297.9,91.9z"></path>
				<path class="st36" d="M1302.7,86.8c0-0.1,0-0.2,0.1-0.2c0-0.1,0.1-0.1,0.2-0.2c0.1,0,0.2,0,0.2,0c0.1,0,0.2,0.1,0.2,0.1      s0.1,0.1,0.1,0.2c0,0.1,0,0.2,0,0.2c0,0.1-0.1,0.1-0.2,0.2c-0.1,0-0.2,0.1-0.2,0.1c-0.1,0-0.2,0-0.3-0.1      S1302.7,86.9,1302.7,86.8z"></path>
				<path class="st9" d="M1327.7,99.9c0.4-0.6-0.8-1.3-1-3.3c-0.2-1.7,0.5-2.1,0.1-3.5c0-0.2-0.7-2.4-2.2-2.6      c-0.8-0.1-1.8,0.4-2.1,1.2c-0.3,0.9,0.7,1.4,1,2.9c0.5,2.1-0.9,2.9-0.3,4.2C1324,100.3,1327.1,100.7,1327.7,99.9z"></path>
				<path class="st9" d="M1360,104.5c0.3-0.3-0.1-1.7-1.2-2.4c-1-0.6-2.3-0.1-2.6,0c-1,0.4-1,1-2.1,1.7c-1.7,1.2-3.3,0.7-3.4,1.2      c-0.1,0.6,1.9,2.1,3.4,1.6c1.5-0.5,1.5-2.7,3-3C1358.4,103.3,1359.6,104.8,1360,104.5z"></path>
				<path class="st9" d="M1358.6,105.6c-0.3-0.1-0.5-0.1-0.8,0c-0.3,0.1-0.5,0.3-0.6,0.5c-0.6,1,1,2.8,1.6,2.6      C1359.3,108.6,1359.6,106.1,1358.6,105.6z"></path>
				<path class="st9" d="M1338.4,106c-0.1-0.7-1.4-1.7-2.6-1.2c-1.4,0.5-1.5,2.5-0.9,3C1335.6,108.5,1338.5,107.1,1338.4,106z"></path>
				<path class="st9" d="M1327.3,113.2c0.3-0.2-0.6-1.2-1-3.6c-0.1-0.7-0.1-1.1-0.3-1.1c-0.4-0.1-1.4,1.2-1.2,2.5      C1325,112.6,1326.9,113.5,1327.3,113.2z"></path>
				<path class="st0" d="M1270.5,31.5c-1.2-1.6-0.5-4.2,1.2-5.2c1.8-1.1,4.1-0.5,5.7,0.8c-1.1-2.2-0.4-5.3,2.5-5.7      c2.2-0.3,4.4,1.7,4.3,3.9c-0.4-2.6-0.2-5.3,1-7.7c1.2-2.3,3.4-4.2,5.9-4.7c3.5-0.7,7.2,1.4,8.8,4.6c1.5,3.2,0.8,7.3-1.4,10      c1.6-2,3.8-3.9,6.4-3.8c2.6,0,5,2.9,3.8,5.2c-0.7,1.4-2.4,2-3.9,2.4L1270.5,31.5z"></path>
			</g>
		</g>
	</g>
</g>
</svg>
